<svg preserveAspectRatio="none" width="100%" height="100%" overflow="visible" style="display: block;" viewBox="0 0 450.016 448.257" fill="none" xmlns="http://www.w3.org/2000/svg">
<g id="Group">
<path id="Vector" d="M0.00659198 84.1341C2.45224 81.6395 5.31855 81.2952 8.5729 82.9777C11.1849 84.329 13.8588 85.5665 16.5066 86.856C17.0153 86.2519 17.2631 85.9108 17.5599 85.6185C18.0196 85.1637 18.4533 84.6375 19.0012 84.3257C22.2066 82.5132 28.037 85.5568 28.4414 89.1622C28.4968 89.6592 28.9925 90.1886 29.4196 90.5427C29.8175 90.874 30.424 90.9422 30.8903 91.2118C33.1435 92.5046 35.0381 93.2094 37.6631 91.2378C40.4805 89.12 45.0425 90.3121 47.5044 92.8976C48.6196 94.067 48.8838 95.4832 48.6164 96.9676C48.4272 98.0135 48.8316 98.478 49.7218 98.7638C51.2185 99.2478 52.699 99.8032 54.2218 100.18C54.6196 100.277 55.3272 99.9461 55.6012 99.5888C57.9783 96.4641 59.2892 96.1101 62.7881 97.7894C63.7175 98.2344 64.6696 98.6339 65.5827 99.1113C67.2881 100.008 68.3577 101.294 68.2957 103.366C68.2827 103.808 68.687 104.448 69.0881 104.688C70.4316 105.494 71.8566 106.16 73.4283 106.972C74.0022 106.241 74.6316 105.517 75.1664 104.731C76.1805 103.243 77.674 102.658 79.2816 103.09C81.5707 103.704 83.8338 104.52 85.9762 105.53C87.7142 106.348 88.3794 108.041 88.0077 109.918C87.799 110.974 88.1675 111.409 89.0609 111.711C90.1892 112.094 91.2881 112.575 92.4262 112.923C93.587 113.277 94.2555 113.998 94.5359 115.157C95.0218 117.155 95.674 119.123 95.9805 121.147C96.1175 122.063 95.8109 123.209 95.3283 124.031C92.687 128.507 90.0131 132.97 87.1957 137.336C80.3283 147.986 73.3729 158.582 66.4533 169.197C65.6414 170.444 64.8783 170.61 63.6294 169.545C56.074 163.09 47.312 158.459 38.8664 153.382C26.5925 146.002 14.1392 138.918 1.75768 131.72C1.20333 131.398 0.593548 131.174 0.00659198 130.904C0.00659198 129.93 0.00659198 128.955 0.00659198 127.981C0.443548 128.192 0.893548 128.381 1.31094 128.621C8.83377 132.951 16.4251 137.167 23.8533 141.646C36.7175 149.406 49.4772 157.331 62.2859 165.182C62.4881 165.306 62.7196 165.39 62.9218 165.484C63.4175 162.464 62.3414 160.619 59.6675 159.04C39.724 147.272 19.8816 135.328 0.00659198 123.437C0.00659198 122.57 0.00659198 121.706 0.00659198 120.838C0.407679 120.984 0.841375 121.072 1.20007 121.287C19.1935 131.993 37.1838 142.705 55.1642 153.437C58.037 155.152 60.8479 156.977 63.662 158.735C67.2783 154.886 90.274 119.276 91.5979 115.472C90.0294 114.81 88.4511 114.147 86.7522 113.429C86.3935 114.069 86.0935 114.631 85.774 115.183C79.5196 125.886 73.337 136.631 66.9685 147.265C64.5001 151.387 61.3435 151.839 57.3327 149.133C56.7946 148.769 56.2729 148.373 55.7838 147.948C54.0718 146.47 53.3153 144.696 54.1142 142.448C54.5479 141.227 54.8903 139.967 55.3925 138.775C58.9403 130.368 63.6229 122.566 68.4001 114.819C69.5544 112.949 70.7414 111.094 72.0229 109.06C70.4088 108.226 68.9544 107.475 67.5392 106.745C64.4838 112.331 61.6501 117.753 58.5848 123.041C55.4903 128.377 52.2033 133.604 48.9196 138.83C47.7849 140.639 46.3859 142.273 43.9305 142.257C37.7316 142.218 34.4218 137.258 37.3109 131.895C42.3131 122.605 47.5892 113.462 52.7512 104.256C53.0251 103.769 53.299 103.282 53.6446 102.668C51.4859 101.96 49.549 101.32 47.6283 100.69C45.8675 104.234 44.2468 107.716 42.4338 111.094C39.3099 116.915 36.1109 122.693 32.8599 128.442C30.7696 132.135 28.249 132.857 24.3783 131.057C23.3935 130.599 22.4316 130.099 21.4729 129.589C18.4533 127.984 17.7294 125.951 19.2033 122.872C20.6544 119.848 22.1935 116.863 23.7262 113.881C26.912 107.683 30.124 101.499 33.4142 95.1323C31.5946 94.2943 29.8501 93.4953 28.0272 92.6572C27.8316 93.0698 27.7077 93.2971 27.6164 93.5375C24.1501 102.379 19.7577 110.766 14.8762 118.899C12.9425 122.121 9.4305 122.696 5.75877 120.575C2.77507 118.85 2.15224 115.934 3.89355 112.594C6.6229 107.368 9.29681 102.113 11.9218 96.8344C13.2131 94.2424 14.3479 91.5756 15.6522 88.7237C13.9272 88.23 12.4468 87.8045 11.3968 87.5024C7.51311 94.5509 3.75985 101.362 0.00659198 108.17C0.00659198 106.439 0.00659198 104.705 0.00659198 102.973C0.427244 102.36 0.919635 101.785 1.2555 101.132C3.54464 96.6752 5.82072 92.209 8.04137 87.7168C8.29572 87.2003 8.42616 86.3688 8.18159 85.9108C7.20659 84.0886 3.35224 84.0074 2.14246 85.7029C1.43485 86.6969 0.720722 87.6876 0.00659198 88.6815C0.00659198 87.1646 0.00659198 85.651 0.00659198 84.1341ZM62.0348 148.363C62.462 148.09 63.3327 147.723 63.9359 147.1C64.7153 146.291 65.3479 145.316 65.9251 144.345C70.6109 136.433 75.3099 128.527 79.9207 120.569C81.7892 117.343 83.5305 114.037 85.187 110.698C86.1164 108.827 85.6892 107.972 83.7718 107.128C82.6827 106.647 81.5707 106.205 80.4327 105.848C78.137 105.13 77.6055 105.208 76.3435 107.235C71.6838 114.712 66.9946 122.18 62.5664 129.794C60.3718 133.565 58.5946 137.596 56.8566 141.61C55.562 144.592 58.2522 148.256 62.0348 148.363ZM43.0533 139.778C45.3033 139.785 45.9979 138.603 46.7283 137.557C53.5533 127.832 59.0022 117.308 64.5359 106.845C66.7729 102.616 66.5218 102.343 62.2696 100.297C62.1229 100.225 61.9794 100.148 61.8327 100.076C59.3381 98.8742 58.9566 98.9197 57.5185 101.284C53.8631 107.287 50.1685 113.273 46.6925 119.38C43.9925 124.122 41.6022 129.037 39.0751 133.876C38.3642 135.237 38.1164 136.696 39.4305 137.716C40.6696 138.684 42.1859 139.301 43.0533 139.778ZM41.6414 92.7547C38.7653 92.8229 37.0338 94.0442 35.9088 96.0483C34.112 99.2543 32.4001 102.506 30.7109 105.77C27.6555 111.675 24.6294 117.597 21.6196 123.528C20.4588 125.818 20.6772 126.373 22.9957 127.585C23.7653 127.988 24.5283 128.394 25.3077 128.774C28.0566 130.105 29.2468 129.777 30.7599 127.081C33.9849 121.329 37.2457 115.589 40.3109 109.752C42.3196 105.929 44.1099 101.986 45.8088 98.0167C46.8262 95.6391 46.2001 94.4308 43.8327 93.3848C43.0109 93.021 42.0849 92.8781 41.6414 92.7547ZM9.94572 119.38C11.612 119.399 12.4175 118.279 13.0599 117.064C16.3272 110.909 19.6533 104.783 22.7512 98.5462C24.062 95.9087 24.9196 93.0373 25.862 90.2309C26.3446 88.7887 25.7055 87.6973 24.2675 87.1354C23.5631 86.8593 22.8522 86.5929 22.1251 86.385C20.8859 86.031 19.8816 86.3363 19.2392 87.5316C18.9066 88.1488 18.4957 88.727 18.1925 89.3571C16.4283 93.0633 14.7425 96.8084 12.9196 100.482C10.712 104.932 8.41637 109.34 6.10768 113.738C4.77398 116.278 5.35442 117.931 8.06746 118.899C8.67398 119.117 9.31963 119.224 9.94572 119.38ZM65.837 165.306C66.2414 164.744 66.5544 164.334 66.8381 163.902C68.5664 161.284 70.3175 158.679 72.0098 156.039C78.874 145.339 85.7088 134.624 92.5957 123.937C93.5577 122.446 93.0816 121.176 92.4783 119.63C92.2175 119.978 92.0805 120.137 91.9664 120.309C83.6479 133.029 75.3881 145.787 66.9653 158.439C65.5338 160.593 64.8164 162.577 65.837 165.306Z" fill="var(--fill-0, #E9EAEB)"/>
<path id="Vector_2" d="M108.594 0.00659449C109.51 2.22184 111.042 2.92994 113.553 3.12808C124.588 4.00184 132.232 10.0759 137.224 19.6255C138.691 22.4319 139.692 25.4949 140.723 28.506C141.339 30.312 140.778 30.9486 138.864 31.2182C131.126 32.3063 123.388 33.401 115.644 34.4599C114.62 34.5996 114.049 34.9114 113.775 36.0417C112.497 41.3362 108.577 44.8053 103.132 45.6368C98.2501 46.3806 93.186 44.003 90.6001 39.527C89.9121 38.3349 89.1947 38.1758 88.011 38.3512C81.7827 39.2574 75.5447 40.1182 69.3099 40.9789C68.4881 41.0926 68.0023 41.3427 67.7642 42.2847C66.4207 47.6052 63.1175 51.0418 57.6034 51.9545C51.7762 52.9192 47.3088 50.7007 44.3023 45.6563C43.8294 44.8638 43.3305 44.6364 42.4729 44.7826C41.0838 45.0229 39.6816 45.1983 38.2827 45.3802C37.0534 45.5394 36.3881 45.0684 36.1664 43.7626C35.2697 38.5168 36.2186 33.6673 39.0262 29.1459C39.349 28.6229 39.5805 27.9603 39.6034 27.3496C39.9947 17.7221 42.1664 8.62722 47.5534 0.467834C47.6316 0.3509 47.599 0.162506 47.6186 0.00659449C48.9229 0.00659449 50.2273 0.00659449 51.5316 0.00659449C46.0468 7.19154 43.461 15.3769 42.8349 24.6634C49.1968 19.9438 55.8686 18.5569 63.0392 21.2139C70.2881 23.9001 74.4457 29.3538 76.0305 36.9025C77.4621 36.7141 78.7371 36.4737 80.0251 36.399C81.2349 36.3276 81.5186 35.8339 81.4468 34.6483C80.8697 24.9395 87.4599 16.2831 97.0534 14.0517C106.52 11.8494 116.26 16.7476 120.049 25.6671C120.698 27.1937 121.128 28.8113 121.706 30.5199C126.913 29.7825 132.131 29.0419 137.674 28.2559C136.562 25.5437 135.594 23.179 134.573 20.6942C130.07 23.5948 125.645 24.462 121.569 20.8728C117.186 17.0107 118.94 12.4698 120.956 7.99708C117.554 6.48344 114.036 5.98647 110.442 5.99946C109.073 6.00596 108.225 5.46351 107.544 4.33315C106.65 2.85523 105.639 1.44553 104.681 0.00659449C105.985 0.00659449 107.289 0.00659449 108.594 0.00659449ZM55.5881 49.1318C60.9392 49.0636 65.0577 44.7696 64.9697 39.3451C64.8849 34.252 60.4729 29.9417 55.3957 29.9937C50.1262 30.0456 45.6686 34.5378 45.7762 39.6829C45.8871 44.9839 50.2631 49.2001 55.5881 49.1318ZM91.9044 33.1444C91.911 38.4356 96.2284 42.6712 101.592 42.6517C106.777 42.629 111.098 38.27 111.082 33.0762C111.065 27.8141 106.683 23.5266 101.358 23.5688C96.1207 23.611 91.9012 27.8856 91.9044 33.1444ZM118.256 30.9778C117.825 25.326 113.126 19.5995 107.247 17.6149C100.487 15.3347 94.4153 16.7801 89.3903 21.7368C85.5881 25.4884 84.0392 30.1885 84.6034 35.6585C85.2262 35.6 85.6012 35.574 85.9729 35.5318C88.6534 35.2102 88.6534 35.207 88.7773 32.5857C89.0675 26.3492 93.7794 21.2756 99.9718 20.5382C106.161 19.7977 111.939 23.6273 113.687 29.6266C113.863 30.234 114.023 30.8447 114.222 31.5593C115.624 31.3546 116.896 31.1727 118.256 30.9778ZM42.636 41.6188C43.2523 32.7254 46.7838 28.0837 53.524 27.0606C60.2707 26.0374 64.9697 29.5097 68.2273 38.0329C69.711 37.8022 71.224 37.5684 72.9034 37.3053C71.4979 30.9031 68.0316 26.4337 62.1131 24.1892C55.5979 21.7141 49.5457 22.9321 44.4099 27.6095C40.2457 31.4034 38.5044 36.2366 39.0718 42.0866C40.3762 41.9177 41.4849 41.7715 42.636 41.6188ZM132.717 17.8618C130.353 14.3992 127.575 11.5441 124.014 9.48149C121.5 12.8953 121.34 16.5625 123.548 18.5244C126.131 20.8241 129.685 20.6032 132.717 17.8618Z" fill="var(--fill-0, #E9EAEB)"/>
<path id="Vector_3" d="M427.833 0.00659449C427.947 1.29287 428.055 2.58239 428.175 3.86866C429.082 13.6911 427.295 23.1985 424.331 32.4655C422.273 38.8936 419.599 45.1236 417.199 51.4413C417.049 51.8343 416.879 52.2208 416.648 52.7828C420.962 53.4909 423.864 56.0115 426.026 59.4967C428.319 63.1899 429.48 67.1884 429.105 71.5507C428.681 76.4684 426.639 80.7007 423.44 84.4037C422.315 85.7062 421.272 85.4073 420.502 83.8255C418.64 79.9926 416.837 76.1143 414.698 72.4342C413.818 70.9173 412.216 69.7577 410.785 68.6371C409.768 67.8445 408.855 68.0199 408.069 69.3809C405.222 74.2986 402.245 79.1449 399.228 83.9619C398.798 84.6505 397.865 85.4723 397.207 85.4366C396.639 85.4073 396.085 84.2737 395.625 83.5624C395.338 83.1206 395.266 82.549 395.061 82.0487C391.663 73.714 385.344 70.9757 376.944 74.2044C376.135 74.5162 375.346 74.88 374.55 75.2308C372.652 76.0689 371.654 75.4452 371.853 73.4086C372.268 69.1568 372.665 64.8984 373.295 60.6726C373.608 58.5775 373.053 57.6648 370.774 57.9539C368.713 58.2137 366.418 58.9673 364.843 60.2536C361.256 63.1899 358.07 66.607 354.669 69.7739C354.059 70.3424 353.162 71.0245 352.474 70.953C351.969 70.901 351.359 69.7512 351.18 69.0009C349.278 60.9974 350.113 53.4357 355.614 46.9783C359.56 42.3432 364.445 39.0041 370.852 39.1015C372.985 39.134 375.101 40.0662 377.319 40.6087C378.339 37.4677 379.38 34.0051 380.586 30.6043C384.121 20.6454 388.777 11.2842 395.619 3.11184C396.476 2.08542 397.308 1.03626 398.152 9.81598e-05C399.675 9.81598e-05 401.195 9.81598e-05 402.718 9.81598e-05C401.85 0.893344 401.019 1.81907 400.109 2.66359C399.395 3.32297 399.186 4.00833 399.825 4.76516C401.491 6.73354 402.923 9.03325 404.945 10.5404C410.713 14.841 417.431 15.0716 424.265 14.1296C424.64 14.0776 425.198 13.2299 425.182 12.7654C425.038 8.50704 424.787 4.25519 424.569 9.81598e-05C425.658 0.00659449 426.747 0.00659449 427.833 0.00659449ZM404.775 69.0886C413.749 52.419 421.758 35.8956 424.751 17.2284C413.351 18.401 403.51 16.595 397.053 6.1846C390.978 13.8113 386.87 22.2825 383.645 31.2215C380.423 40.1507 378.193 49.317 376.634 59.1005C382.194 55.9562 387.548 56.1414 392.935 57.9636C398.394 59.8086 402.828 62.8586 404.775 69.0886ZM397.891 80.4636C399.056 78.5862 400.194 76.9459 401.113 75.1951C401.619 74.2337 401.977 73.0903 402.01 72.0152C402.114 68.8937 400.732 66.3244 398.368 64.382C394.031 60.8187 389.012 59.1687 383.394 59.828C377.159 60.5589 373.823 65.4441 375.33 71.4013C388.65 68.7508 391.122 69.722 397.891 80.4636ZM353.619 65.7592C355.145 64.3657 356.573 62.995 358.07 61.7087C362.638 57.7785 367.093 53.5299 374.048 55.3488C374.632 52.5944 375.183 49.9017 375.78 47.2219C376.468 44.1297 375.91 43.1325 372.78 42.3399C371.853 42.1061 370.82 41.9794 369.89 42.1256C362.902 43.2332 358.07 47.2414 355.083 53.4941C353.221 57.3952 352.927 61.5431 353.619 65.7592ZM410.518 65.1031C417.401 68.0621 419.638 74.5163 422.609 80.4539C427.728 73.5548 427.278 64.4307 421.432 58.6847C420.153 57.4277 418.278 56.7228 416.58 55.9822C416.156 55.7971 415.05 56.2811 414.793 56.752C413.302 59.4383 411.975 62.2122 410.518 65.1031Z" fill="var(--fill-0, #E9EAEB)"/>
<path id="Vector_4" d="M203.159 0.00659449C204.825 2.77403 205.047 3.90114 204.535 7.15581C204.861 7.37343 205.213 7.61704 205.572 7.84766C208.745 9.89401 210.342 12.8076 210.307 16.5592C210.297 17.4622 210.476 18.0534 211.317 18.5341C214.872 20.5707 216.176 23.8644 216.447 27.7557C216.489 28.3728 216.887 29.1589 217.379 29.5194C221.162 32.2934 223.171 35.8468 222.753 40.6379C222.704 41.1998 223.034 41.9826 223.458 42.3724C227.214 45.8252 228.871 49.9601 227.981 55.0597C227.886 55.6022 228.248 56.3915 228.656 56.83C230.977 59.3278 232.966 62.0303 233.729 65.3987C235.021 71.1122 233.208 75.8707 228.848 79.6711C224.266 83.6631 218.7 85.651 212.922 87.1126C201.277 90.0587 189.486 91.2963 177.571 89.2467C174.424 88.7075 171.215 87.5966 168.437 86.0375C161.224 81.9903 160.057 74.3636 165.352 68.0264C165.903 67.367 166.494 66.7434 167.048 66.123C163.869 60.6856 164.381 56.372 168.933 50.4766C165.594 44.8897 167.025 40.1377 171.867 36.0125C169.911 31.5365 170.319 27.4406 174.042 23.9066C172.285 18.1443 173.149 14.9059 177.444 11.661C176.051 9.52372 175.621 7.23701 176.922 4.85935C178.272 2.40049 180.522 1.7606 183.453 2.01721C182.964 1.17593 182.628 0.591264 182.289 0.00659449C183.16 0.00659449 184.027 0.00659449 184.898 0.00659449C185.804 2.2998 187.556 3.12483 189.881 2.63761C191.443 2.30954 192.978 1.78984 194.472 1.22141C194.857 1.07524 195.049 0.425608 195.329 0.00334632C197.941 0.00659449 200.55 0.00659449 203.159 0.00659449ZM168.806 67.5197C168.108 68.3025 167.459 68.9554 166.898 69.6765C162.581 75.2406 163.572 81.0158 169.807 84.3355C172.614 85.8296 175.852 86.8171 179.009 87.314C189.838 89.0193 200.56 87.8987 211.145 85.3034C216.541 83.9814 221.831 82.3281 226.34 78.9143C233.684 73.3567 233.847 64.1903 226.653 58.152C223.784 62.1083 219.701 64.4274 215.306 66.2529C204.649 70.6769 193.507 71.8722 182.09 70.9498C177.558 70.5827 172.979 70.2124 168.806 67.5197ZM170.602 52.1916C164.667 58.0675 166.428 65.3109 174.196 67.5977C174.665 67.7341 175.138 67.8705 175.617 67.9517C188.742 70.2059 201.597 69.3452 214.057 64.4762C217.917 62.969 221.553 60.9876 224.227 57.6745C227.544 53.5688 226.099 46.1695 221.517 43.99C218.162 49.4047 212.941 52.2663 207.062 54.0918C199.428 56.4662 191.573 56.6384 183.659 56.2323C178.973 55.992 174.473 55.2871 170.602 52.1916ZM173.394 37.8445C168.127 41.1933 167.795 47.5695 172.869 51.0418C174.685 52.2858 176.964 53.2895 179.126 53.5169C184.024 54.0301 188.99 54.2802 193.911 54.1145C200.69 53.8872 207.303 52.6009 213.232 49.0214C216.254 47.1959 218.847 44.906 220.194 41.5344C221.596 38.0264 219.45 33.0112 215.821 31.3774C214.216 35.0608 210.933 36.8245 207.512 38.4291C203.123 40.4885 198.453 41.4207 193.66 41.7747C186.545 42.3009 179.498 42.3854 173.394 37.8445ZM210.186 20.4278C207.877 22.3735 206.032 24.6114 203.654 25.8035C194.99 30.1496 186.104 31.2702 177.186 26.2972C176.116 25.6996 175.106 25.7451 174.297 26.7747C172.066 29.6136 172.425 34.0084 175.2 36.3243C176.217 37.1753 177.447 37.864 178.692 38.3382C183.59 40.2091 188.687 40.0792 193.81 39.631C199.738 39.1113 205.373 37.6723 210.401 34.3917C215.837 30.8479 215.527 23.4194 210.186 20.4278ZM189.346 27.4211C190.852 27.2684 192.382 27.2197 193.865 26.9436C198.346 26.1186 202.507 24.6667 205.947 21.4347C209.775 17.839 208.203 12.0345 204.499 9.71861C203.726 9.23788 203.283 9.31259 202.552 9.91025C196.181 15.1333 188.987 16.4001 181.226 13.7821C179.364 13.1519 178.22 13.5937 177.085 14.8247C175.774 16.2474 175.213 17.9819 175.272 19.8886C175.331 21.7238 176.09 23.0913 177.75 24.1437C181.317 26.3979 185.175 27.3496 189.346 27.4211ZM187.702 13.4183C187.751 13.2851 187.8 13.1519 187.849 13.0187C189.088 12.8953 190.34 12.8368 191.566 12.6355C195.16 12.0443 198.506 10.8295 201.153 8.2342C202.774 6.64584 203.087 4.38837 202.151 2.5564C201.512 1.30586 200.511 0.82838 199.19 1.37082C198.091 1.82232 197.032 2.37775 195.982 2.93969C192.923 4.58651 189.711 5.24588 186.248 4.63848C184.97 4.41435 183.672 4.26494 182.374 4.18698C180.274 4.06355 178.95 4.98928 178.441 6.81475C177.978 8.4843 178.588 10.2253 180.388 10.9919C182.749 11.9956 185.26 12.629 187.702 13.4183Z" fill="var(--fill-0, #E9EAEB)"/>
<path id="Vector_5" d="M264.137 0.00659449C260.126 4.12202 256.787 8.6662 254.879 14.1524C251.622 23.5331 252.933 32.4103 258.029 40.7581C260.521 44.8378 264.029 47.6052 269.188 47.4201C272.172 47.3129 274.559 45.8382 276.766 44.0225C279.069 42.1288 281.25 40.0792 283.634 38.296C287.384 35.4895 291.541 33.8167 296.381 34.3949C299.736 34.7944 302.413 36.3763 304.618 38.8644C306.913 41.4564 309.688 43.2592 313.138 43.9023C317.547 44.7241 321.541 43.623 325.207 41.1803C332.596 36.2561 336.091 25.3683 332.739 17.1309C330.949 19.0636 329.234 20.8858 327.574 22.76C327.414 22.9386 327.532 23.4778 327.672 23.7832C329.312 27.3821 329.306 30.8804 326.658 33.9727C323.788 37.3183 319.908 37.9062 315.796 37.1948C313.125 36.7336 310.777 35.4733 308.85 33.5244C305.674 30.3152 304.653 25.9172 306.264 22.3702C307.918 18.7323 311.775 16.4488 316.285 16.8451C318.339 17.0237 320.325 17.9202 322.363 18.3945C322.869 18.5114 323.658 18.4529 323.987 18.1379C325.983 16.2247 327.845 14.1783 329.831 12.2554C330.535 11.5733 330.46 11.0569 330.049 10.287C327.988 6.43146 325.265 3.08261 322.181 0.00659449C323.266 0.00659449 324.356 0.00659449 325.441 0.00659449C327.77 3.1021 330.095 6.20085 332.208 9.01051C333.926 7.47088 335.775 5.82406 337.604 4.15775C337.741 4.03432 337.754 3.77122 337.813 3.56983C338.149 2.381 338.478 1.19217 338.811 0.00334632C340.768 0.00334632 342.724 0.00334632 344.681 0.00334632C346.829 2.60837 349.79 2.60837 351.854 0.00334632C352.833 0.00334632 353.811 0.00334632 354.789 0.00334632C353.377 2.67334 351.137 4.0603 348.131 4.148C347.283 4.17399 346.715 4.24545 346.148 5.08348C345.251 6.39898 344.185 7.70799 342.215 7.53909C341.857 7.50661 341.39 7.98084 341.071 8.31215C339.153 10.3033 337.213 12.2782 335.4 14.3602C335.022 14.7955 334.908 15.7342 335.077 16.3286C337.171 23.7539 336.522 30.7797 332.191 37.3215C327.395 44.5682 317.876 48.6836 309.264 45.0846C308.857 44.9125 308.022 45.1723 307.676 45.5199C305.12 48.0989 302.645 50.7559 300.127 53.3739C298.953 54.5953 297.046 54.5205 295.65 53.2343C294.375 52.0617 294.303 50.3726 295.507 49.1123C298.083 46.4099 300.672 43.7236 303.232 41.0537C300.727 37.1786 296.306 35.6552 291.417 36.909C288.124 37.7503 285.401 39.6017 282.858 41.7585C281.081 43.2657 279.391 44.8897 277.546 46.3059C270.528 51.6914 262.259 50.7202 257.204 43.4443C249.659 32.5857 248.782 20.9508 254.592 9.03325C255.975 6.1976 258.095 3.71925 259.875 1.07524C260.11 0.724439 260.328 0.360644 260.553 0.00334632C261.747 0.00659449 262.94 0.00659449 264.137 0.00659449ZM310.715 31.949C314.309 28.2137 317.909 24.4718 321.894 20.3304C319.719 19.7977 318.033 19.1838 316.301 19.0019C312.796 18.6381 309.32 20.7007 308.211 23.5493C307.122 26.346 308.116 29.8118 310.715 31.949ZM316.389 34.7977C319.732 35.8533 323.573 34.5833 325.357 31.9718C326.863 29.7728 326.919 26.8592 325.402 25.0207C322.412 28.2656 319.432 31.4943 316.389 34.7977ZM312.639 33.2516C312.704 33.4659 312.766 33.6803 312.832 33.8915C313.34 33.8005 314.045 33.8947 314.328 33.5926C317.501 30.2503 320.619 26.8559 323.713 23.4421C323.909 23.2245 323.811 22.7405 323.847 22.38C323.527 22.4547 323.1 22.4222 322.908 22.6203C319.471 26.1478 316.057 29.7013 312.639 33.2516ZM306.336 43.6132C305.87 43.1974 305.498 42.8629 305.045 42.4601C302.253 45.3867 299.553 48.2191 296.873 51.032C297.512 52.0097 298.076 52.2111 298.807 51.4445C301.272 48.8687 303.747 46.3059 306.336 43.6132ZM344.928 3.93038C344.87 3.65753 344.811 3.38469 344.756 3.11184C344.126 2.62462 343.428 2.20235 342.887 1.63068C342.121 0.818636 341.579 0.639987 340.67 1.55597C339.74 2.49144 339.972 3.06637 340.826 3.74848C341.159 4.01483 341.423 4.38187 341.782 4.606C342.15 4.83986 342.672 5.18417 342.982 5.07373C343.679 4.82687 344.286 4.32665 344.928 3.93038ZM325.706 21.4153C327.949 18.7128 330.307 16.7899 331.901 14.2628C329.694 16.1662 327.551 18.1021 325.448 20.0803C325.327 20.1939 325.549 20.6682 325.706 21.4153ZM339.887 6.15537C339.714 5.99296 339.541 5.8338 339.369 5.67139C337.441 7.85416 335.116 9.67963 333.437 12.0865C333.597 12.2327 333.757 12.3756 333.916 12.5218C335.909 10.4007 337.898 8.27967 339.887 6.15537Z" fill="var(--fill-0, #E9EAEB)"/>
<path id="Vector_6" d="M0.00662096 412.199C12.2577 413.027 24.1729 411.351 35.6284 406.989C38.5142 405.891 41.3251 404.231 43.7055 402.269C50.1164 396.978 49.7088 388.464 42.9979 382.621C36.1566 390.384 26.8371 392.895 17.1816 394.587C11.5077 395.581 5.77184 395.987 0.00988183 395.308C0.00988183 394.659 0.00988183 394.009 0.00988183 393.359C1.15119 393.379 2.29249 393.392 3.43053 393.415C12.936 393.59 22.174 392.242 30.9653 388.513C34.4773 387.022 37.8425 385.232 40.324 382.208C43.7479 378.038 42.5251 371.028 37.9208 368.326C37.1121 369.329 36.3718 370.398 35.4784 371.327C30.199 376.813 23.3805 379.119 16.0958 379.974C10.7773 380.597 5.37401 380.477 0.00662096 380.692C0.00662096 379.935 0.00662096 379.175 0.00662096 378.418C1.30771 378.473 2.6088 378.564 3.90988 378.583C11.9447 378.697 19.8653 378.103 27.2642 374.572C30.9066 372.834 34.0599 370.492 36.0099 366.858C38.074 363.009 36.0784 357.327 32.1718 355.749C29.6512 360.098 27.049 361.29 23.5925 362.823C16.0599 366.159 8.12293 366.832 0.00662096 366.075C0.00662096 365.425 0.00662096 364.776 0.00662096 364.126C1.1414 364.152 2.27945 364.197 3.41423 364.204C10.986 364.253 18.4175 363.522 25.1218 359.617C26.6773 358.711 28.2229 357.522 29.2892 356.103C32.0186 352.465 30.0523 346.138 25.8653 344.637C22.8555 349.376 18.1794 351.552 12.9327 352.887C8.64793 353.979 4.34358 353.943 0.00336009 353.404C0.00336009 352.647 0.00336009 351.887 0.00336009 351.13C2.86314 351.247 5.75227 351.672 8.57945 351.413C13.7936 350.932 18.636 349.343 22.4871 345.472C26.0708 341.869 24.3392 336.081 20.5142 333.989C20.1458 333.788 19.3371 333.866 19.0371 334.142C15.7925 337.121 11.9121 338.693 7.60771 339.102C5.09684 339.342 2.54032 339.121 0.00662096 339.108C0.00662096 338.352 0.00662096 337.592 0.00662096 336.835C0.433795 336.9 0.860969 336.978 1.28814 337.033C6.59684 337.731 11.5892 336.825 15.9914 333.739C17.1555 332.924 18.1436 331.576 18.6979 330.257C19.324 328.776 18.9392 327.094 17.6577 325.947C16.4153 324.836 15.2218 325.824 14.0642 326.35C13.5718 326.574 13.086 326.817 12.6197 327.094C9.23814 329.091 5.58923 329.461 1.77727 328.89C1.19032 328.802 0.593578 328.77 9.92231e-05 328.714C9.92231e-05 326.658 9.92231e-05 324.599 9.92231e-05 322.543C0.381621 323.183 0.710969 323.865 1.15771 324.456C1.79358 325.294 2.37727 326.519 3.23162 326.785C5.90553 327.613 8.6838 327.081 10.7903 325.404C11.7523 324.641 11.6968 322.605 12.0881 321.143C12.1436 320.938 12.1305 320.714 12.1338 320.497C12.2773 315.196 10.8686 310.323 7.85227 305.974C5.79793 303.008 3.9001 303.08 2.04466 306.14C1.21966 307.517 0.67836 309.063 0.00662096 310.531C0.00662096 308.689 0.00662096 306.851 0.00662096 305.009C0.534882 304.399 1.03053 303.755 1.60119 303.187C3.53488 301.264 5.77836 301.105 7.85553 302.839C8.71314 303.557 9.51206 304.425 10.1023 305.373C13.2914 310.489 14.7392 316.05 14.1555 322.088C14.1034 322.611 14.0838 323.137 14.0381 323.78C14.511 323.673 14.8175 323.605 15.1208 323.537C17.7621 322.933 19.5881 323.868 20.524 326.395C20.8012 327.146 21.1762 328.049 20.9903 328.744C20.3675 331.069 21.7208 332.099 23.3055 333.363C25.6794 335.256 26.6708 337.975 26.5762 340.992C26.5468 341.96 26.886 342.467 27.6588 342.928C31.1153 344.978 32.511 348.184 32.6153 352.036C32.6381 352.929 32.8925 353.426 33.6653 353.975C37.5164 356.71 39.6099 360.322 38.9675 365.211C38.9121 365.63 39.1631 366.25 39.486 366.533C43.4871 370.021 45.2088 374.28 44.211 379.574C44.1229 380.048 44.5436 380.747 44.9251 381.162C47.4523 383.92 49.6045 386.899 50.1947 390.68C51.0653 396.253 49.0468 400.775 44.7686 404.325C40.1479 408.158 34.624 410.104 28.9077 411.543C19.8555 413.826 10.6664 414.924 1.31423 414.453C0.883795 414.43 0.446838 414.463 0.0131427 414.472C0.00662096 413.716 0.00662096 412.956 0.00662096 412.199Z" fill="var(--fill-0, #E9EAEB)"/>
<path id="Vector_7" d="M0.00660647 231.926C11.5142 236.7 24.8023 231.429 30.2968 219.911C35.762 208.454 31.8881 196.134 20.5892 189.186C14.674 185.548 8.27291 183.908 1.30117 184.782C0.873998 184.834 0.437041 184.814 0.0033456 184.827C0.0033456 183.96 0.0033456 183.096 0.0033456 182.229C7.60117 181.199 14.749 182.592 21.2936 186.529C29.1392 191.246 34.3207 197.852 35.3055 207.233C36.8414 221.892 24.8838 235.654 10.0729 236.268C9.49574 236.291 8.92182 236.333 8.27943 236.369C9.499 239.543 10.7055 242.537 11.8012 245.571C12.7468 248.189 12.3457 248.878 9.61639 249.79C8.674 250.106 7.83921 253.266 8.45226 254.435C8.77508 255.049 9.20226 255.631 9.67508 256.144C10.7707 257.326 10.9599 258.817 9.93269 259.824C6.82182 262.871 7.89139 266.093 9.09139 269.429C9.44356 270.41 10.4544 271.709 8.78161 272.304C7.17074 272.878 7.02074 271.28 6.62617 270.299C6.20226 269.25 5.91204 268.146 5.58922 267.058C4.75443 264.235 4.91421 261.604 7.05987 259.334C7.34682 259.028 7.53269 258.625 7.68595 258.395C6.95226 257.053 5.96421 255.897 5.70987 254.595C5.45552 253.302 5.77835 251.817 6.14682 250.505C6.45335 249.414 6.56421 248.628 5.33487 248.101C5.30552 248.108 5.16204 248.088 5.10661 248.15C4.38269 248.978 3.49248 250.086 2.43922 249.375C1.774 248.926 1.324 247.462 1.50335 246.601C2.00226 244.191 2.83378 241.842 3.62617 239.5C4.00117 238.393 4.58813 237.357 5.13921 236.158C3.33269 235.69 1.66965 235.271 0.00660647 234.849C0.00660647 233.874 0.00660647 232.9 0.00660647 231.926ZM8.72943 246.237C8.84356 246.036 8.95443 245.831 9.06856 245.63C8.30552 243.723 7.54248 241.816 6.77617 239.91C6.62943 239.916 6.48269 239.923 6.33595 239.929C5.68378 241.514 5.02835 243.103 4.36965 244.701C6.02291 245.282 7.37617 245.76 8.72943 246.237Z" fill="var(--fill-0, #E9EAEB)"/>
<path id="Vector_8" d="M450.007 414.472C446.697 413.917 443.286 413.686 440.107 412.712C437.423 411.89 434.681 410.594 432.528 408.827C427.008 404.286 426.985 397.53 432.085 391.82C432.479 391.378 432.89 390.956 433.324 390.491C429.424 384.755 431.498 379.73 434.994 375.023C434.449 373.208 433.657 371.502 433.471 369.732C433.102 366.253 434.667 363.421 437.273 361.196C438.036 360.543 438.127 360.108 437.733 359.192C436.083 355.379 437.146 351.107 440.394 348.252C438.313 343.377 439.353 339.248 443.645 336C440.834 331.826 442.996 325.729 449.56 326.333C449.364 325.888 449.217 325.521 449.041 325.167C445.869 318.658 446.746 312.272 449.645 305.951C449.703 305.828 449.879 305.756 450 305.659C450 307.715 450 309.774 450 311.83C449.071 314.971 448.758 318.109 450 321.25C450 323.741 450 326.23 450 328.721C449.788 328.679 449.579 328.627 449.367 328.594C447.013 328.227 445.471 328.997 444.802 330.874C444.117 332.797 444.881 334.48 447.036 335.594C447.985 336.084 449.009 336.429 450 336.841C450 337.491 450 338.141 450 338.79C449.165 338.592 448.239 338.563 447.519 338.163C445.771 337.195 444.349 337.79 443.42 339.16C442.546 340.453 441.877 342.009 441.581 343.539C441.166 345.673 441.991 347.492 444.095 348.479C446.048 349.399 448.031 350.25 450 351.133C450 351.783 450 352.432 450 353.082C447.841 352.286 445.644 351.578 443.537 350.659C442.324 350.13 441.372 350.068 440.54 351.156C438.222 354.19 438.786 358.744 441.828 361.024C444.232 362.823 447.007 363.658 449.997 363.804C449.997 364.561 449.997 365.321 449.997 366.078C446.231 365.636 442.689 364.59 439.722 362.177C436.419 364.23 434.857 367.826 435.828 371.07C436.709 374.01 438.841 375.92 441.597 376.8C444.294 377.661 447.189 377.908 449.997 378.424C449.997 379.181 449.997 379.941 449.997 380.698C445.298 380.23 440.596 379.779 436.807 376.443C436.409 376.914 436.115 377.229 435.861 377.573C431.028 384.17 433.2 390.251 441.166 392.08C444.056 392.742 447.052 392.95 450 393.366C450 394.015 450 394.665 450 395.315C445.709 395.165 441.44 394.853 437.433 393.138C434.694 391.966 434.713 391.917 432.861 394.366C432.567 394.753 432.297 395.159 432.046 395.575C429.499 399.836 430.102 403.922 433.856 407.19C434.821 408.031 435.949 408.733 437.097 409.318C441.137 411.387 445.546 411.926 450 412.202C450.007 412.956 450.007 413.716 450.007 414.472Z" fill="var(--fill-0, #E9EAEB)"/>
<path id="Vector_9" d="M95.5501 0.00659449C96.6914 1.89378 97.9729 3.716 98.9284 5.69413C99.7534 7.40916 99.2316 8.19847 97.3403 8.51029C86.8534 10.2351 76.3599 11.9274 65.8664 13.6262C62.8142 14.1199 59.7621 14.6038 56.7131 15.1041C54.4958 15.4646 53.7816 14.7695 54.2088 12.5348C55.1055 7.80869 57.2055 3.65428 60.3327 0.00659449C61.9631 0.00659449 63.5936 0.00659449 65.224 0.00659449C61.3827 2.98516 58.836 6.78876 57.5675 11.8299C63.4077 10.8847 68.9773 9.98496 74.5925 9.07547C74.1653 5.88252 73.7708 2.94618 73.3762 0.00659449C74.4621 0.00659449 75.5512 0.00659449 76.6371 0.00659449C76.924 2.35827 77.2762 4.70669 77.4686 7.06486C77.5697 8.3219 78.0588 8.59799 79.2294 8.38036C81.8381 7.89639 84.4697 7.51635 87.0881 7.08759C89.8468 6.63285 92.6055 6.17161 95.9838 5.60968C94.2294 3.50162 92.7686 1.75411 91.311 0.00659449C92.7229 0.00659449 94.1381 0.00659449 95.5501 0.00659449Z" fill="var(--fill-0, #E9EAEB)"/>
<path id="Vector_10" d="M104.681 448.253C97.1316 438.515 87.0066 435.076 75.0295 436.349C66.6229 437.242 59.149 440.25 53.211 446.473C52.699 447.009 52.3044 447.656 51.8544 448.253C50.5501 448.253 49.2458 448.253 47.9414 448.253C53.7425 439.805 62.0121 435.335 71.9381 433.663C80.1425 432.279 88.1544 432.799 95.7197 436.631C101.067 439.34 105.222 443.371 108.594 448.253C107.289 448.253 105.985 448.253 104.681 448.253Z" fill="var(--fill-0, #E9EAEB)"/>
<path id="Vector_11" d="M398.485 448.253C404.286 442.322 411.078 438.035 419.116 435.751C419.726 435.579 420.294 434.936 420.675 434.374C421.089 433.76 421.236 432.974 421.549 432.285C422.299 430.652 422.733 429.271 421.432 427.446C419.909 425.305 421.344 422.06 423.815 420.943C426.421 419.764 429.382 420.93 430.438 423.545C431.501 426.182 430.288 429.32 427.536 429.96C425.576 430.414 425.175 431.652 424.412 433.091C423.157 435.459 423.561 437.353 424.722 439.678C426.052 442.338 426.613 445.379 427.507 448.253C426.528 448.253 425.55 448.253 424.572 448.253C423.489 445.324 422.443 442.377 421.285 439.477C421.135 439.097 420.342 438.629 419.994 438.723C413.557 440.49 407.847 443.576 403.05 448.253C401.527 448.253 400.008 448.253 398.485 448.253ZM425.788 423.48C424.732 423.649 423.936 424.22 423.946 425.432C423.956 426.64 424.725 427.322 425.906 427.319C427.034 427.312 427.719 426.559 427.768 425.484C427.82 424.285 427.053 423.655 425.788 423.48Z" fill="var(--fill-0, #E9EAEB)"/>
<path id="Vector_12" d="M450.007 130.583C446.276 128.497 442.52 126.451 438.835 124.285C438.209 123.918 437.778 123.076 437.465 122.362C437.142 121.634 437.12 120.783 436.882 120.01C435.887 116.785 435.378 113.689 437.954 110.801C438.551 110.132 438.434 108.827 438.626 107.813C438.766 107.076 438.704 106.241 439.034 105.604C442.66 98.5397 446.341 91.5041 450.01 84.4589C450.01 86.083 450.01 87.707 450.01 89.3311C447.104 95.0641 444.17 100.784 441.313 106.543C440.68 107.82 441.382 108.654 442.611 109.213C444.779 110.201 445.852 110.197 446.658 108.96C447.802 107.199 448.895 105.406 450.01 103.626C450.01 105.358 450.01 107.092 450.01 108.823C449.667 109.21 449.273 109.567 448.989 109.993C447.444 112.312 445.996 112.874 443.328 112.088C442.461 111.831 441.616 111.49 440.7 111.162C440.022 112.38 439.373 113.546 438.695 114.764C442.516 116.707 446.263 118.61 450.013 120.514C450.013 121.488 450.013 122.462 450.013 123.437C446.511 121.559 443.009 119.685 439.507 117.808C439.331 117.951 439.151 118.09 438.975 118.233C439.445 119.601 439.5 121.566 440.462 122.229C443.462 124.301 446.808 125.886 450.016 127.656C450.007 128.634 450.007 129.608 450.007 130.583Z" fill="var(--fill-0, #E9EAEB)"/>
<path id="Vector_13" d="M450.007 185.152C444.786 185.75 440.583 188.299 437.237 192.168C429.349 201.286 429.92 214.912 438.434 224.091C441.685 227.596 445.454 230.337 450.007 231.929C450.007 232.903 450.007 233.878 450.007 234.852C442.585 232.179 436.761 227.576 432.718 220.768C424.141 206.324 430.927 187.942 446.687 183.044C447.773 182.706 448.898 182.502 450.007 182.232C450.007 183.203 450.007 184.178 450.007 185.152Z" fill="var(--fill-0, #E9EAEB)"/>
<path id="Vector_14" d="M321.854 448.253C321.254 447.588 320.713 446.857 320.041 446.272C305.648 433.708 286.966 432.428 271.008 442.998C268.683 444.537 266.635 446.493 264.46 448.257C263.263 448.257 262.07 448.257 260.873 448.257C273.026 435.173 295.184 427.991 314.325 439.288C318.391 441.689 322.135 444.528 325.112 448.257C324.029 448.253 322.94 448.253 321.854 448.253Z" fill="var(--fill-0, #E9EAEB)"/>
<path id="Vector_15" d="M60.6588 448.253C62.9708 445.447 66.0327 443.781 69.4305 442.722C74.9218 441.01 80.4947 440.75 86.0805 442.28C89.8338 443.306 92.9773 445.346 95.5534 448.253C94.0305 448.253 92.511 448.253 90.9881 448.253C86.6055 444.687 81.5121 444.112 76.0762 444.485C76.1675 445.921 76.2392 447.087 76.3142 448.253C75.336 448.253 74.3577 448.253 73.3794 448.253C73.1968 447.224 73.0142 446.194 72.8023 445.008C70.0664 445.717 67.5718 446.434 65.5534 448.253C63.9197 448.253 62.2892 448.253 60.6588 448.253Z" fill="var(--fill-0, #E9EAEB)"/>
<path id="Vector_16" d="M195.333 448.253C196.79 441.471 195.336 435.27 191.394 429.654C189.509 426.971 187.614 426.965 185.997 429.762C182.573 435.689 181.614 441.874 184.898 448.253C184.027 448.253 183.16 448.253 182.289 448.253C179.87 441.906 180.493 435.696 183.45 429.739C186.16 424.285 190.49 424.11 193.82 429.252C196.966 434.114 198.336 439.5 197.961 445.298C197.912 446.035 197.866 446.775 197.811 447.623C199.663 447.305 201.404 446.749 202.833 448.253C200.332 448.253 197.834 448.253 195.333 448.253Z" fill="var(--fill-0, #E9EAEB)"/>
<path id="Vector_17" d="M352.181 448.253C353.377 445.678 354.698 443.15 355.732 440.513C356.687 438.074 357.339 435.517 358.242 432.633C357.294 433.039 356.681 433.302 356.068 433.565C354.085 434.423 352.109 435.303 350.113 436.128C347.654 437.148 345.509 438.554 344.149 440.899C342.717 443.368 342.903 445.84 344.351 448.25C342.613 448.25 340.872 448.25 339.134 448.25C340.083 447.227 340.781 445.424 340.937 443.875C341.325 440.019 343.406 437.21 346.709 435.387C348.969 434.14 351.447 433.286 353.788 432.172C355.741 431.246 357.616 430.158 359.573 429.242C360.02 429.034 360.721 429.096 361.181 429.3C361.396 429.398 361.477 430.187 361.35 430.58C359.853 435.254 358.337 439.922 356.756 444.57C356.325 445.837 355.663 447.022 355.109 448.247C354.137 448.253 353.159 448.253 352.181 448.253Z" fill="var(--fill-0, #E9EAEB)"/>
<path id="Vector_18" d="M306.528 0.00659449C304.539 1.90352 303.822 4.17074 304.767 6.78227C305.896 9.90375 309.245 10.7093 311.742 8.53952C313.963 6.61011 314.524 3.47239 313.119 0.880351C312.969 0.601009 312.854 0.298929 312.724 0.00659449C313.595 0.00659449 314.462 0.00659449 315.333 0.00659449C316.663 3.32947 316.448 6.48344 314.139 9.31908C312.095 11.8299 309.033 12.6225 306.245 11.4954C303.698 10.4657 301.878 7.52285 302.178 4.52479C302.332 2.99815 302.892 1.51049 303.271 0.00659449C304.353 0.00659449 305.442 0.00659449 306.528 0.00659449Z" fill="var(--fill-0, #E9EAEB)"/>
<path id="Vector_19" d="M284.028 0.00659449C282.946 3.11834 284.452 6.51267 287.462 7.74372C290.713 9.07222 293.906 6.51592 293.4 2.91695C293.26 1.92301 292.813 0.974548 292.507 0.00659449C293.377 0.00659449 294.245 0.00659449 295.115 0.00659449C295.194 0.370389 295.252 0.74068 295.347 1.09798C296.381 4.97629 294.89 8.58825 291.727 9.86153C288.395 11.203 284.384 9.56919 282.444 6.14887C281.345 4.20972 281.354 2.12115 281.42 0.00659449C282.29 0.00659449 283.158 0.00659449 284.028 0.00659449Z" fill="var(--fill-0, #E9EAEB)"/>
<path id="Vector_20" d="M281.746 448.253C282.753 444.057 287.084 442.147 291.049 444.19C292.774 445.08 294.14 446.353 294.789 448.253C293.919 448.253 293.051 448.253 292.181 448.253C289.754 444.703 285.789 444.703 284.028 448.253C283.269 448.253 282.506 448.253 281.746 448.253Z" fill="var(--fill-0, #E9EAEB)"/>
<path id="Vector_21" d="M303.594 448.253C306.779 443.531 311.909 443.531 315.333 448.253C314.354 448.253 313.376 448.253 312.398 448.253C310.438 446.535 308.384 446.535 306.854 448.253C305.769 448.253 304.679 448.253 303.594 448.253Z" fill="var(--fill-0, #E9EAEB)"/>
<path id="Vector_22" d="M331.5 252.831C333.098 252.11 334.559 251.525 335.938 250.791C336.349 250.57 336.577 249.956 336.815 249.485C336.926 249.264 336.809 248.939 336.877 248.686C337.921 244.782 341.658 244.675 344.531 243.492C346.428 242.709 348.052 243.645 349.308 245.844C349.934 246.939 350.544 247.247 351.74 246.792C353.054 246.295 354.463 246.052 355.787 245.574C356.185 245.431 356.746 244.857 356.71 244.535C356.462 242.157 357.118 240.28 359.27 239.016C361.699 237.59 364.249 237.129 366.913 238.133C367.904 238.506 368.896 239.088 369.652 239.815C370.419 240.553 371.015 240.663 371.899 240.156C372.506 239.809 373.19 239.595 373.852 239.354C375.695 238.682 377.573 238.208 377.694 235.599C377.729 234.823 378.802 233.787 379.644 233.423C381.209 232.744 382.931 232.276 384.629 232.085C386.227 231.903 387.483 232.816 388.451 234.151C388.709 234.505 389.514 234.755 389.961 234.641C392.56 233.965 395.1 233.287 397.503 231.854C401.185 229.662 404.534 230.747 406.422 234.589C409.614 241.092 412.578 247.708 415.572 254.309C415.96 255.163 416.195 256.228 416.081 257.141C415.807 259.311 416.743 261.039 417.854 262.682C418.631 263.826 418.823 264.862 418.373 266.168C417.864 267.646 417.463 269.176 417.166 270.712C416.808 272.563 415.82 273.681 414.114 274.58C391.709 286.388 369.326 298.234 346.989 310.167C344.094 311.714 341.469 313.776 338.762 315.66C337.314 316.667 336.476 316.625 335.687 315.283C328.979 303.905 322.246 292.546 315.584 281.142C313.265 277.169 311.133 273.09 308.896 269.072C308.136 267.704 307.999 266.389 308.638 264.894C309.186 263.611 309.558 262.228 309.822 260.854C310.174 258.996 311.27 258.083 313.05 257.706C314.051 257.495 315.056 257.174 315.959 256.706C316.373 256.491 316.803 255.793 316.774 255.338C316.644 253.185 317.338 251.574 319.295 250.693C320.968 249.94 322.735 249.349 324.515 248.894C327.02 248.257 329.146 248.816 330.437 251.311C330.704 251.821 331.106 252.272 331.5 252.831ZM390.153 237.175C390.362 237.811 390.46 238.224 390.629 238.607C394.04 246.386 397.448 254.163 400.882 261.932C401.694 263.767 401.948 265.567 400.843 267.357C398.27 271.524 391.595 271.453 389.387 267.106C386.521 261.464 383.827 255.731 381.196 249.976C379.813 246.952 378.727 243.794 377.452 240.553C375.623 241.316 373.852 242.05 372.02 242.813C373.689 246.412 375.271 249.79 376.823 253.178C379.572 259.181 382.334 265.18 385.027 271.209C386.319 274.106 385.464 276.253 382.617 277.64C381.545 278.163 380.456 278.654 379.35 279.105C375.466 280.69 372.965 279.898 371.143 276.146C366.744 267.093 362.485 257.979 358.168 248.887C357.988 248.507 357.786 248.137 357.568 247.702C355.529 248.28 353.57 248.839 351.512 249.423C351.672 249.816 351.75 250.067 351.871 250.291C354.104 254.439 356.456 258.525 358.552 262.738C361.445 268.549 364.174 274.444 366.916 280.326C367.996 282.639 367.803 284.858 365.99 286.797C362.514 290.519 357.473 290.139 354.682 285.946C354.502 285.676 354.316 285.407 354.163 285.121C350.772 278.836 347.322 272.58 344.015 266.252C341.739 261.9 339.659 257.446 337.406 252.863C335.902 253.565 334.409 254.26 332.879 254.971C333.056 255.368 333.131 255.569 333.228 255.754C336.74 262.286 340.471 268.711 343.693 275.38C345.939 280.031 347.583 284.981 349.275 289.876C349.595 290.802 349.184 292.322 348.561 293.166C344.485 298.718 338.994 298.393 335.579 292.507C335.416 292.225 335.253 291.945 335.1 291.659C330.577 283.091 326.041 274.525 321.538 265.944C320.286 263.563 319.122 261.133 317.889 258.668C316.95 259.025 316.141 259.33 315.336 259.632C314.537 259.935 313.741 260.233 312.757 260.604C320.648 275.984 329.814 290.406 338.791 304.993C364.269 290.886 389.42 276.552 415.771 264.284C415.171 263.088 414.554 261.864 413.935 260.63C413.12 260.912 412.464 261.169 411.793 261.367C408.698 262.273 407.143 261.698 405.613 258.879C403.754 255.452 401.915 252.012 400.239 248.494C398.309 244.454 396.564 240.325 394.657 236.054C393.261 236.408 391.764 236.778 390.153 237.175ZM347.178 290.445C346.768 289.08 346.461 287.7 345.943 286.404C341.407 275.077 335.7 264.339 329.279 253.974C327.16 250.554 326.958 250.573 323.1 251.837C318.698 253.279 318.307 253.89 320.443 258.054C326.218 269.312 332.094 280.521 338.032 291.695C339.913 295.236 341.632 295.505 344.971 293.189C345.541 292.793 346.076 292.309 346.526 291.783C346.826 291.438 346.947 290.941 347.178 290.445ZM345.766 245.753C345.222 245.844 345.052 245.844 344.902 245.902C343.79 246.328 342.675 246.747 341.573 247.202C339.248 248.16 338.932 248.819 339.672 251.177C339.929 251.999 340.21 252.828 340.582 253.604C342.926 258.473 345.179 263.394 347.694 268.175C350.635 273.768 353.775 279.261 356.925 284.741C357.427 285.611 358.37 286.677 359.234 286.803C361.158 287.086 362.981 286.306 364.35 284.848C365.56 283.562 365.1 282.119 364.425 280.771C359.632 271.209 354.832 261.646 349.999 252.103C349.096 250.32 348.085 248.589 347.032 246.89C346.706 246.364 346.076 246.019 345.766 245.753ZM364.174 240.046C360.933 240.394 357.913 241.628 359.694 245.899C360.108 246.896 360.401 247.946 360.851 248.926C363.538 254.77 366.215 260.617 368.971 266.428C370.383 269.406 371.899 272.339 373.454 275.246C374.654 277.491 375.789 277.861 378.131 276.939C379.138 276.542 380.12 276.075 381.101 275.617C383.289 274.597 383.56 274.002 382.585 271.849C379.441 264.904 376.275 257.973 373.076 251.054C371.853 248.407 370.608 245.763 369.222 243.2C368.156 241.225 366.391 240.124 364.174 240.046ZM339.17 311.915C339.793 311.58 340.21 311.369 340.618 311.139C348.02 306.929 355.324 302.541 362.837 298.545C379.36 289.762 395.987 281.178 412.569 272.505C414.434 271.53 415.22 269.864 414.881 267.548C413.912 267.961 412.94 268.302 412.034 268.766C399.975 274.964 387.851 281.048 375.89 287.433C364.216 293.667 352.709 300.205 341.139 306.633C340.604 306.932 339.916 307.371 339.776 307.874C339.44 309.099 339.378 310.401 339.17 311.915ZM394.331 267.977C398.407 268.026 399.884 265.56 398.211 262.072C395.899 257.252 393.763 252.35 391.598 247.462C389.981 243.807 388.487 240.098 386.811 236.473C386.446 235.684 385.51 234.56 384.877 234.586C381.065 234.745 378.721 235.638 380.032 239.608C381.248 243.294 382.533 246.978 384.108 250.518C386.413 255.696 388.989 260.753 391.49 265.843C392.081 267.038 392.873 268.091 394.331 267.977ZM401.84 233.335C397.252 233.816 396.714 234.79 398.084 237.633C401.204 244.113 404.293 250.612 407.488 257.057C408.75 259.6 409.624 259.766 412.249 258.635C413.589 258.057 414.144 257.2 413.504 255.829C410.25 248.816 407.015 241.797 403.663 234.829C403.291 234.066 402.222 233.634 401.84 233.335ZM336.551 311.688C337.083 309.196 337.448 307.432 336.16 305.311C328.158 292.134 320.361 278.829 312.493 265.57C312.336 265.307 312.147 265.063 311.889 264.693C311.103 266.301 310.823 267.665 311.739 269.237C317.165 278.533 322.507 287.882 327.92 297.188C330.665 301.901 333.499 306.565 336.551 311.688Z" fill="var(--fill-0, #E9EAEB)"/>
<path id="Vector_23" d="M83.811 238.776C83.811 233.845 83.8012 229.418 83.8142 224.987C83.8208 222.119 83.7849 219.248 83.9381 216.386C83.9805 215.591 84.4273 214.567 85.0371 214.087C90.6686 209.672 96.3653 205.336 102.085 201.036C102.561 200.675 103.409 200.493 103.989 200.629C114.717 203.14 125.426 205.719 136.148 208.263C137.442 208.568 138.01 209.175 138 210.611C137.945 222.301 138 233.991 137.919 245.678C137.912 246.714 137.165 247.744 136.696 248.943C139.595 249.969 142.771 251.22 146.028 252.194C147.877 252.746 148.409 253.682 148.412 255.559C148.419 265.57 148.549 275.581 148.702 285.592C148.725 286.998 148.282 287.83 147.069 288.606C141.365 292.257 135.44 295.593 130.36 300.157C129.851 300.614 128.733 300.705 127.986 300.546C122.306 299.338 116.645 298.048 110.99 296.733C106.712 295.736 102.457 294.644 98.1816 293.634C97.0827 293.374 96.8936 292.657 96.9001 291.702C96.9197 289.113 96.9066 286.527 96.9066 283.763C96.4468 283.938 95.8892 284.085 95.3968 284.344C92.0414 286.118 88.6827 287.885 85.3697 289.733C84.424 290.259 83.6936 290.217 82.6534 289.905C79.1284 288.843 75.5023 288.109 71.9675 287.073C66.4566 285.459 60.9881 283.692 55.4968 282.006C54.0066 281.548 53.4327 280.674 53.4197 279.034C53.3414 268.591 53.1588 258.148 52.9664 247.708C52.9436 246.403 53.4131 245.721 54.6034 245.087C59.5827 242.446 64.5099 239.702 69.3947 236.889C71.211 235.843 72.8121 235.58 74.8827 236.372C77.5892 237.402 80.4947 237.912 83.811 238.776ZM99.6457 258.551C99.6457 259.714 99.649 260.675 99.6457 261.637C99.6229 271.105 99.6229 280.573 99.5414 290.038C99.5316 291.172 100.083 291.39 100.934 291.588C107.116 293.02 113.296 294.466 119.472 295.918C122.149 296.545 124.823 297.194 127.738 297.889C127.738 297.119 127.745 296.597 127.738 296.077C127.604 286.446 127.432 276.815 127.37 267.181C127.36 265.771 126.9 265.158 125.589 264.842C120.104 263.517 114.636 262.124 109.154 260.782C106.06 260.025 102.956 259.324 99.6457 258.551ZM86.6055 217.377C86.5403 217.981 86.4816 218.296 86.4751 218.611C86.3414 229.379 86.2077 240.15 86.0903 250.918C86.0642 253.253 86.0968 253.217 88.3664 253.695C95.374 255.163 102.375 256.66 109.379 258.151C111.108 258.518 112.826 258.918 114.597 259.311C114.675 258.869 114.744 258.661 114.744 258.453C114.753 247.682 114.744 236.915 114.776 226.144C114.779 225.147 114.3 224.884 113.469 224.663C108.437 223.318 103.422 221.918 98.3968 220.55C94.536 219.498 90.6686 218.468 86.6055 217.377ZM82.536 286.901C82.6305 286.472 82.7153 286.264 82.7153 286.059C82.7055 276.432 82.6631 266.808 82.6892 257.183C82.6925 255.559 82.1153 254.903 80.4653 254.562C74.7294 253.38 69.0294 252.025 63.3294 250.674C60.8153 250.076 58.3403 249.323 55.7381 248.608C55.6697 249.144 55.5751 249.505 55.5816 249.862C55.7186 259.327 55.8425 268.792 56.0544 278.257C56.0675 278.813 56.6708 279.648 57.199 279.859C65.3381 283.097 73.8914 284.867 82.536 286.901ZM117.316 257.771C123.336 253.828 129.049 250.115 134.703 246.318C135.137 246.026 135.336 245.12 135.336 244.496C135.372 234.264 135.359 224.036 135.349 213.804C135.349 213.447 135.287 213.089 135.245 212.618C134.932 212.729 134.72 212.761 134.553 212.869C129.117 216.351 123.669 219.813 118.278 223.363C117.786 223.688 117.427 224.588 117.421 225.225C117.346 234.807 117.339 244.386 117.316 253.968C117.316 255.137 117.316 256.3 117.316 257.771ZM130.197 296.421C135.274 293.101 139.953 289.99 144.698 286.982C145.761 286.31 146.107 285.582 146.084 284.364C145.934 275.928 145.859 267.49 145.754 259.054C145.748 258.593 145.676 258.132 145.614 257.443C144.867 257.813 144.297 258.083 143.739 258.372C139.604 260.526 135.496 262.728 131.322 264.807C130.278 265.326 129.946 265.914 129.962 267.028C130.076 274.87 130.132 282.714 130.197 290.555C130.213 292.439 130.197 294.326 130.197 296.421ZM133.285 210.497C132.835 210.277 132.744 210.208 132.642 210.182C123.264 207.912 113.892 205.632 104.501 203.413C103.973 203.29 103.21 203.527 102.744 203.858C100.67 205.333 98.6512 206.889 96.636 208.441C93.9001 210.549 91.1838 212.68 88.2947 214.928C88.8425 215.152 89.1621 215.327 89.5077 215.422C97.6664 217.647 105.822 219.878 113.994 222.051C114.532 222.194 115.304 222.054 115.781 221.756C120.59 218.722 125.364 215.626 130.145 212.547C131.126 211.914 132.101 211.27 133.285 210.497ZM85.4284 286.358C89.2957 284.497 92.9577 282.763 96.5805 280.947C96.9262 280.775 97.1968 280.099 97.1968 279.657C97.1577 272.736 97.0827 265.81 96.962 258.892C96.9555 258.476 96.5447 257.765 96.2251 257.706C92.6284 257.027 89.0121 256.446 85.4316 255.845C85.4284 266.077 85.4284 276.169 85.4284 286.358ZM83.5599 252.789C83.5599 249.118 83.5175 245.935 83.5827 242.755C83.6055 241.69 83.2436 241.241 82.2099 240.991C79.1544 240.254 76.1284 239.393 73.0794 238.614C72.6947 238.516 72.1762 238.484 71.8566 238.662C67.3729 241.167 62.9121 243.713 58.4479 246.25C58.4414 246.432 58.4349 246.617 58.4284 246.799C66.6653 248.761 74.9023 250.723 83.5599 252.789ZM118.494 260.217C121.898 261.166 124.745 262.007 127.627 262.725C128.325 262.9 129.245 262.887 129.864 262.575C134.227 260.386 138.541 258.096 142.869 255.832C143.462 255.52 144.036 255.173 145.004 254.62C140.971 253.25 137.354 251.986 133.706 250.82C133.304 250.693 132.675 251.031 132.238 251.294C130.151 252.564 128.081 253.857 126.036 255.189C123.636 256.751 121.272 258.359 118.494 260.217Z" fill="var(--fill-0, #E9EAEB)"/>
<path id="Vector_24" d="M320.769 129.17C324.088 130.336 326.847 131.255 329.57 132.278C333.881 133.899 333.248 132.72 333.303 137.531C333.417 147.109 333.486 156.692 333.639 166.27C333.662 167.644 333.157 168.417 332.032 169.139C326.332 172.796 320.397 176.119 315.326 180.702C314.791 181.186 313.585 181.241 312.779 181.069C307.634 179.965 302.508 178.753 297.382 177.551C292.683 176.45 288 175.274 283.291 174.215C282 173.926 281.84 173.147 281.85 172.085C281.873 169.551 281.857 167.017 281.857 164.299C281.361 164.49 280.8 164.643 280.301 164.909C276.995 166.66 273.675 168.395 270.414 170.23C269.413 170.792 268.634 170.74 267.541 170.412C264.016 169.35 260.387 168.619 256.852 167.583C251.286 165.952 245.769 164.166 240.225 162.464C238.829 162.035 238.35 161.187 238.34 159.706C238.265 149.26 238.122 138.817 237.939 128.374C237.913 126.929 238.425 126.227 239.733 125.542C244.631 122.969 249.46 120.267 254.237 117.483C256.171 116.356 257.896 116.177 260.041 116.973C262.706 117.96 265.546 118.474 268.637 119.276C268.637 118.334 268.631 117.707 268.637 117.08C268.706 110.477 268.803 103.873 268.826 97.2696C268.829 95.9606 269.237 95.0999 270.32 94.2878C275.573 90.3575 280.794 86.3753 285.933 82.2989C287.312 81.2042 288.554 80.9768 290.231 81.3894C299.612 83.7053 309.02 85.9076 318.411 88.178C323.915 89.5065 322.872 88.6847 322.901 93.9305C322.96 104.321 322.917 114.716 322.908 125.106C322.911 126.643 323.306 128.345 320.769 129.17ZM284.602 139.067C284.602 140.155 284.602 141.065 284.602 141.971C284.593 151.488 284.612 161.008 284.54 170.525C284.531 171.727 285.101 171.951 286.034 172.166C292.477 173.65 298.918 175.164 305.354 176.674C307.719 177.23 310.079 177.795 312.568 178.386C312.623 177.772 312.698 177.356 312.691 176.941C312.574 167.043 312.427 157.146 312.346 147.249C312.336 146.129 311.827 145.732 310.888 145.495C307.102 144.543 303.329 143.54 299.54 142.614C294.652 141.425 289.748 140.288 284.602 139.067ZM271.552 97.903C271.5 98.6826 271.448 99.1633 271.441 99.644C271.311 110.356 271.226 121.069 271.021 131.781C270.991 133.383 271.523 133.906 273.016 134.198C279.401 135.452 285.766 136.813 292.135 138.161C294.6 138.684 297.049 139.285 299.687 139.892C299.687 139.135 299.687 138.658 299.687 138.18C299.694 127.9 299.661 117.619 299.743 107.339C299.756 105.903 299.273 105.358 297.972 105.017C292.145 103.493 286.337 101.892 280.523 100.323C277.598 99.5304 274.673 98.7443 271.552 97.903ZM267.731 167.437C267.731 166.202 267.734 165.143 267.731 164.088C267.711 155.383 267.714 146.681 267.649 137.976C267.633 135.572 267.525 135.643 265.194 135.108C258.851 133.656 252.522 132.152 246.192 130.638C244.376 130.203 242.586 129.657 240.701 129.141C240.652 129.543 240.603 129.755 240.607 129.962C240.721 139.532 240.854 149.101 240.936 158.67C240.946 159.667 241.35 160.17 242.224 160.427C248.619 162.301 255.003 164.208 261.411 166.03C263.377 166.592 265.406 166.927 267.731 167.437ZM320.201 92.9431C314.24 96.7759 308.583 100.388 302.977 104.078C302.566 104.347 302.338 105.172 302.335 105.741C302.289 115.966 302.293 126.191 302.289 136.42C302.289 136.936 302.351 137.453 302.384 137.956C302.612 137.972 302.746 138.024 302.814 137.979C308.309 134.399 313.82 130.846 319.262 127.185C319.833 126.802 320.276 125.792 320.279 125.071C320.345 114.953 320.325 104.835 320.319 94.7166C320.319 94.2456 320.26 93.7811 320.201 92.9431ZM315.121 176.963C320.439 173.498 325.353 170.331 330.206 167.076C330.656 166.774 330.965 165.926 330.962 165.335C330.913 156.571 330.802 147.808 330.698 139.044C330.695 138.752 330.607 138.46 330.525 137.972C329.599 138.45 328.836 138.836 328.079 139.233C324.137 141.289 320.218 143.387 316.239 145.375C315.268 145.859 314.902 146.385 314.919 147.464C315.023 154.441 315.069 161.421 315.118 168.401C315.137 171.191 315.121 173.988 315.121 176.963ZM318.372 90.9552C317.668 90.7311 317.472 90.6564 317.27 90.6077C308.045 88.3859 298.823 86.1447 289.585 83.9846C288.972 83.8417 288.072 84.1048 287.547 84.4979C282.998 87.9084 278.501 91.3905 273.995 94.8595C273.773 95.0284 273.629 95.2948 273.343 95.6456C282.101 98.0232 290.671 100.362 299.257 102.639C299.726 102.762 300.404 102.493 300.861 102.204C304.119 100.161 307.347 98.0654 310.582 95.9834C313.073 94.3885 315.551 92.7807 318.372 90.9552ZM270.404 167.014C271.066 166.689 271.539 166.465 272.009 166.231C274.862 164.789 277.657 163.22 280.588 161.96C281.883 161.405 282.215 160.758 282.193 159.475C282.088 154.07 282.082 148.662 282.013 143.257C281.994 141.695 282.473 139.622 281.668 138.713C280.807 137.739 278.707 137.813 277.132 137.518C274.875 137.095 272.606 136.751 270.408 136.384C270.404 146.638 270.404 156.682 270.404 167.014ZM268.604 133.321C268.604 129.683 268.552 126.558 268.631 123.437C268.663 122.125 268.102 121.715 266.896 121.446C264.043 120.812 261.241 119.955 258.395 119.286C257.739 119.133 256.869 119.169 256.298 119.484C252.029 121.836 247.813 124.278 243.584 126.701C243.522 126.737 243.522 126.883 243.378 127.344C251.651 129.306 259.895 131.258 268.604 133.321ZM303.809 140.493C303.864 140.639 303.92 140.785 303.975 140.935C306.845 141.721 309.704 142.549 312.594 143.254C313.295 143.426 314.214 143.407 314.84 143.092C319.295 140.854 323.7 138.515 328.119 136.205C328.624 135.942 329.12 135.66 330.01 135.172C325.973 133.799 322.35 132.535 318.701 131.362C318.3 131.232 317.677 131.541 317.247 131.798C315.431 132.873 313.624 133.974 311.857 135.127C309.157 136.891 306.489 138.703 303.809 140.493Z" fill="var(--fill-0, #E9EAEB)"/>
<path id="Vector_25" d="M242.172 197.885C253.768 198.232 264.251 201.351 272.436 210.049C278.41 216.399 281.645 224.127 283.331 232.546C283.859 235.19 284.201 237.889 284.371 240.579C284.521 242.934 285.026 245.032 286.22 247.137C288.659 251.431 289.089 256.144 288.228 260.98C288.013 262.182 287.231 262.595 286.106 262.455C284.544 262.263 282.982 262.052 281.429 261.792C280.562 261.65 280.093 261.896 279.633 262.705C276.659 267.918 271.383 270.446 265.507 269.572C260.224 268.786 255.991 264.8 254.632 259.252C254.407 258.34 254.035 257.937 253.047 257.804C246.215 256.897 239.39 255.936 232.572 254.936C231.587 254.793 231.062 254.952 230.531 255.884C227.645 260.964 222.362 263.524 216.695 262.712C211.216 261.929 206.837 257.908 205.559 252.266C205.291 251.08 204.613 250.992 203.752 250.872C195.744 249.748 187.735 248.618 179.723 247.514C176.619 247.085 176.237 246.614 177.131 243.655C179.733 235.044 184.06 227.567 191.648 222.337C196.471 219.014 201.9 217.455 207.734 217.319C208.833 217.293 209.459 216.965 210.049 215.99C217.35 203.982 228.082 197.973 242.172 197.885ZM281.253 240.494C280.953 238.139 280.787 236.22 280.454 234.329C278.954 225.783 275.791 218.001 269.566 211.722C263.374 205.473 255.626 202.588 247.037 201.497C232.311 199.626 219.894 205.674 212.469 218.465C211.624 219.92 210.597 220.638 208.823 220.589C205.106 220.486 201.502 221.164 197.981 222.659C198.473 223.805 198.965 224.825 199.357 225.881C201.489 231.675 199.396 236.57 193.963 238.35C190.891 239.357 187.957 238.776 185.191 237.197C184.696 236.915 184.203 236.629 183.466 236.207C182.374 238.925 181.357 241.452 180.235 244.246C186.166 245.081 191.723 245.863 197.266 246.646C199.644 234.391 210.359 227.485 221.133 228.723C225.825 229.262 229.927 231.091 233.335 234.332C238.539 239.283 240.62 245.448 240.01 252.646C242.041 252.931 243.894 253.191 245.808 253.458C247.523 245.366 251.935 239.633 259.559 236.782C267.222 233.913 274.376 235.356 281.253 240.494ZM267.747 266.428C273.385 266.467 277.96 261.906 277.97 256.232C277.979 250.771 273.453 246.224 267.949 246.159C262.243 246.091 257.632 250.547 257.566 256.193C257.501 261.825 262.037 266.389 267.747 266.428ZM218.782 259.558C224.338 259.535 228.936 254.945 228.936 249.423C228.936 243.781 224.361 239.253 218.667 239.26C213.117 239.266 208.513 243.843 208.49 249.378C208.467 254.952 213.15 259.58 218.782 259.558ZM285.225 259.002C285.652 252.288 283.637 246.844 278.576 242.791C272.821 238.178 266.361 237.344 259.621 240.342C253.829 242.917 250.471 247.54 249.131 253.942C250.937 254.195 252.564 254.426 254.175 254.653C256.194 245.448 263.537 242.125 269.87 242.976C276.773 243.902 280.725 249.121 281.332 258.44C282.506 258.609 283.715 258.785 285.225 259.002ZM236.69 252.152C237.264 245.074 234.838 239.543 229.376 235.388C223.686 231.058 215.723 230.636 209.583 234.306C204.747 237.197 201.711 241.352 200.769 247.137C202.399 247.354 203.772 247.54 205.115 247.718C207.923 239.289 213.16 235.193 219.969 235.979C227.671 236.869 231.496 241.647 232.301 251.557C233.674 251.743 235.093 251.934 236.69 252.152ZM194.811 224.354C191.537 225.855 186.783 230.509 185.619 233.355C188.733 236.09 192.688 236.268 195.32 233.797C197.589 231.666 197.374 227.722 194.811 224.354Z" fill="var(--fill-0, #E9EAEB)"/>
<path id="Vector_26" d="M127.282 389.202C129.936 391.979 132.473 394.717 135.111 397.355C136.239 398.482 136.758 399.589 135.988 401.087C135.333 402.363 133.474 403.37 132.016 403.088C131.54 402.997 131.067 402.613 130.709 402.246C128.025 399.489 125.384 396.682 122.684 393.944C122.354 393.609 121.588 393.272 121.262 393.428C112.911 397.433 101.126 393.506 95.7262 383.121C92.4523 376.823 92.1425 370.284 94.1414 363.587C94.4642 362.499 94.311 361.803 93.5153 361.027C92.0055 359.549 90.5968 357.967 89.1327 356.441C88.0697 355.33 87.1501 354.245 85.3175 354.011C84.2251 353.871 83.3153 352.374 82.2979 351.517C81.936 351.211 81.4925 350.76 81.1012 350.776C77.4066 350.922 74.7555 349.145 73.1708 346.066C71.7458 343.295 70.7577 340.294 69.7012 337.348C68.6414 334.395 67.6958 331.401 66.7958 328.396C66.6229 327.815 66.8773 327.107 66.936 326.454C67.5327 326.519 68.1979 326.434 68.7164 326.668C72.3718 328.321 75.9784 330.072 79.6305 331.732C83.7947 333.622 87.3099 336.318 87.7436 341.077C87.9816 343.701 88.5229 345.663 90.6262 347.222C91.0305 347.525 91.3925 348.33 91.2881 348.791C90.8936 350.487 91.9762 351.396 92.9512 352.384C94.2392 353.686 95.5599 354.96 96.8805 356.256C98.736 353.66 100.412 350.942 102.45 348.528C112.363 336.78 124.748 330.218 140.491 331.342C157.872 332.583 176.054 344.796 180.77 362.404C183.737 373.49 181.794 383.829 174.607 392.872C169.601 399.17 161.664 400.119 155.123 395.432C152.133 393.291 149.482 390.686 146.573 388.425C143.746 386.226 140.576 384.736 136.898 384.567C132.956 384.388 129.838 385.915 127.282 389.202ZM96.4762 364.266C93.4044 372.623 96.2447 382.855 102.92 388.325C105.629 390.546 108.678 391.998 112.167 392.417C117.802 393.093 122.364 391.027 126.075 386.866C130.19 382.251 135.388 381.163 141.036 383.014C143.906 383.956 146.592 385.681 149.107 387.415C151.728 389.224 153.933 391.622 156.519 393.493C162.117 397.537 168.607 396.754 172.839 391.284C179.925 382.124 181.604 371.886 177.773 360.962C172.461 345.816 155.932 334.493 139.823 333.681C121.272 332.745 108.47 342.168 99.2773 357.389C99.049 357.769 99.1697 358.672 99.4794 359.01C101.491 361.206 103.572 363.346 105.714 365.419C106.037 365.73 106.829 365.779 107.328 365.653C109.311 365.143 111.225 364.259 113.231 363.983C117.669 363.372 122.087 365.685 123.952 369.284C125.801 372.85 125.067 377.427 122.123 380.753C120.199 382.923 117.845 384.437 115.024 385.109C110.576 386.168 106.383 385.629 103.135 382.182C100.06 378.918 100.089 375.088 101.857 371.145C101.997 370.83 101.997 370.242 101.795 370.018C100.112 368.124 98.3675 366.289 96.4762 364.266ZM69.9164 330.131C70.3436 331.514 70.6534 332.583 71.0023 333.642C71.9838 336.614 72.8903 339.615 74.0088 342.535C74.5208 343.87 75.3099 345.166 76.236 346.261C78.0588 348.415 80.2599 348.934 82.2979 347.96C84.5316 346.888 85.999 344.114 85.5849 341.616C85.0371 338.303 82.9958 336.046 80.0936 334.626C76.8914 333.06 73.5718 331.732 69.9164 330.131ZM119.544 379.779C123.046 376.933 123.629 372.107 120.939 369.057C118.031 365.76 111.519 365.253 108.346 368.141C112.083 372.025 115.816 375.907 119.544 379.779ZM104.087 372.431C102.46 375.339 102.812 378.434 104.85 380.594C106.97 382.845 111.042 383.875 113.547 382.683C110.41 379.285 107.306 375.92 104.087 372.431ZM117.59 381.198C113.951 377.43 110.328 373.662 106.673 369.927C106.51 369.758 106.053 369.875 105.734 369.856C105.806 370.219 105.753 370.694 105.965 370.928C109.167 374.445 112.415 377.921 115.627 381.429C116.322 382.186 116.87 382.111 117.59 381.198ZM133.901 400.268C133.917 400.06 133.931 399.852 133.947 399.645C131.133 396.705 128.315 393.765 125.469 390.79C124.97 391.212 124.608 391.518 124.102 391.95C126.851 394.808 129.509 397.621 132.254 400.346C132.515 400.606 133.337 400.307 133.901 400.268ZM87.4305 346.807C86.4327 347.726 85.8686 348.291 85.2523 348.795C84.3784 349.509 84.0262 350.1 85.024 351.12C86.0153 352.134 86.6381 351.848 87.3816 350.974C87.6588 350.646 88.0664 350.412 88.2881 350.058C88.5327 349.665 88.8686 349.087 88.7381 348.752C88.4773 348.077 87.9294 347.512 87.4305 346.807ZM97.5131 361.141C97.5066 361.294 97.3794 361.641 97.4968 361.771C99.4142 363.886 101.354 365.981 103.324 368.05C103.448 368.18 103.852 368.046 104.126 368.037C104.103 367.761 104.191 367.368 104.041 367.225C101.909 365.195 99.7371 363.2 97.5131 361.141ZM89.0349 352.822C91.1349 355.044 93.2316 357.269 95.4653 359.63C95.6121 358.344 90.7729 353.05 89.0349 352.822Z" fill="var(--fill-0, #E9EAEB)"/>
<path id="Vector_27" d="M262.666 375.092C263.41 376.8 264.127 378.48 264.871 380.143C265.089 380.636 265.409 381.085 265.637 381.575C266.742 383.956 266.152 384.947 263.152 385.574C265.888 390.475 263.302 394.74 261.577 399.141C260.413 402.11 259.331 405.114 258.349 408.145C257.71 410.113 257.42 412.137 258.388 414.164C258.548 414.498 258.062 415.138 257.873 415.639C257.41 415.463 256.631 415.382 256.539 415.09C256.207 414.037 255.773 412.845 255.978 411.825C256.813 407.645 257.765 403.477 258.881 399.362C259.445 397.29 260.348 395.289 261.287 393.346C262.516 390.793 262.344 388.39 260.746 386.148C260.273 385.486 259.311 385.171 258.47 384.628C258.241 384.771 257.994 385.038 257.716 385.073C257.012 385.167 256.112 385.434 255.636 385.119C255.137 384.787 254.72 383.797 254.834 383.199C255.082 381.897 255.554 380.594 256.181 379.415C256.986 377.895 258.026 376.498 259.066 374.894C252.036 372.295 247.031 367.433 243.339 361.612C239.315 362.609 235.467 363.564 231.561 364.535C232.389 366.637 233.341 369.031 234.267 371.431C234.483 371.983 234.662 372.558 234.776 373.136C234.998 374.254 234.47 375.046 233.495 375.501C231.078 376.631 230.534 378.726 232.308 380.821C233.465 382.189 233.449 383.485 232.471 384.787C231.209 386.467 231.036 388.273 231.183 390.303C231.682 397.156 232.066 404.02 232.406 410.883C232.438 411.52 231.851 412.182 231.551 412.835C231.046 412.244 230.279 411.724 230.097 411.046C229.82 410.026 229.966 408.899 229.908 407.817C229.598 401.987 229.35 396.153 228.929 390.329C228.766 388.084 228.841 386.064 230.364 384.216C230.736 383.764 230.804 382.498 230.452 382.121C228.721 380.256 228.633 378.275 229.614 376.118C230.058 375.137 229.66 374.621 228.682 374.13C228.45 374.419 228.274 374.832 227.971 374.978C227.462 375.218 226.774 375.533 226.347 375.361C225.949 375.202 225.519 374.406 225.581 373.961C225.854 372.058 226.184 370.141 226.738 368.303C227.185 366.822 227.987 365.445 228.59 364.106C225.916 363.132 223.21 362.443 220.784 361.206C212.204 356.827 206.84 349.935 206.165 340.223C205.252 327.064 214.94 317.034 228.316 316.943C231.007 316.924 233.723 317.369 236.384 317.833C237.515 318.028 237.897 317.817 238.249 316.797C240.036 311.603 242.625 306.89 246.89 303.268C256.761 294.891 271.989 296.85 280.092 307.523C284.71 313.604 286.97 320.571 287.126 328.087C287.348 338.81 285.166 349.071 279.864 358.523C276.466 364.581 271.872 369.563 265.963 373.289C265.011 373.893 263.981 374.38 262.666 375.092ZM284.863 331.209C285.01 331.186 285.153 331.167 285.3 331.144C284.778 327.574 284.527 323.94 283.673 320.451C282.075 313.938 278.977 308.199 273.372 304.181C262.797 296.597 248.534 300.251 242.684 312.36C235.141 327.974 236.24 343.516 244.308 358.649C247.269 364.201 251.495 368.631 257.185 371.606C259.996 373.078 262.49 372.951 265.106 371.158C270.395 367.536 274.679 363.021 277.826 357.454C282.437 349.314 284.442 340.469 284.863 331.209ZM241.754 359.133C241.585 358.701 241.474 358.347 241.311 358.016C235.575 346.388 233.932 334.262 236.919 321.601C237.192 320.435 236.713 320.055 235.797 319.983C232.458 319.72 229.083 319.132 225.776 319.382C216.059 320.11 208.565 328.308 208.366 338.014C208.109 350.652 219.499 361.985 232.269 361.732C235.608 361.667 238.816 360.985 241.754 359.133ZM260.687 376.661C259.5 378.515 258.431 380.185 257.231 382.059C259.562 382.251 261.512 382.41 263.475 382.572C262.634 380.786 261.727 378.866 260.687 376.661ZM231.812 372.62C231.91 372.438 232.008 372.259 232.106 372.077C231.44 370.44 230.772 368.803 230.107 367.163C229.966 367.182 229.826 367.202 229.686 367.221C229.132 368.582 228.581 369.943 228.02 371.314C229.448 371.808 230.628 372.214 231.812 372.62Z" fill="var(--fill-0, #E9EAEB)"/>
<path id="Vector_28" d="M330.163 367.371C329.876 349.73 344.84 334.688 362.974 334.382C380.801 334.084 395.583 348.064 395.86 365.474C396.147 383.68 381.763 399.222 364.366 399.502C345.294 399.807 330.463 385.872 330.163 367.371ZM349.409 393.785C349.999 394.132 350.178 394.259 350.371 394.347C364.526 400.752 380.143 396.189 388.419 383.05C393.669 374.715 395.038 365.786 391.784 356.321C391.389 355.177 390.851 354.726 389.658 355.174C387.326 356.048 384.858 356.649 382.657 357.769C369.946 364.246 360.603 374.254 353.237 386.223C351.779 388.594 350.703 391.203 349.409 393.785ZM338.103 384.089C347.051 364.493 360.437 349.584 381.832 343.084C372.131 335.087 354.147 333.268 341.358 346.092C329.524 357.958 330.832 375.293 338.103 384.089ZM386.211 347.229C385.278 345.452 384.153 344.803 382.314 345.54C379.197 346.787 375.884 347.622 372.903 349.123C357.248 357.012 346.957 369.758 340.21 385.606C340.047 385.986 339.988 386.642 340.207 386.912C340.895 387.766 341.736 388.5 342.636 389.4C351.649 369.469 364.751 354.105 386.211 347.229ZM389.798 352.355C388.686 349.243 388.428 349.103 385.308 350.104C374.664 353.517 366.003 359.845 358.692 368.124C353.045 374.517 348.718 381.737 345.251 389.504C344.716 390.699 344.844 391.407 346.011 391.956C346.474 392.174 346.904 392.453 347.123 392.577C356.606 373.968 369.359 359.169 389.798 352.355Z" fill="var(--fill-0, #E9EAEB)"/>
<path id="Vector_29" d="M165.362 179.149C146.599 179.133 132.144 165.013 132.176 146.736C132.209 128.228 146.322 114.02 164.654 114.046C182.739 114.072 197.667 129.173 197.619 147.389C197.57 165.244 183.431 179.166 165.362 179.149ZM184.233 170.217C182.677 166.894 180.499 164.075 177.936 161.577C167.729 151.634 155.41 145.573 141.649 142.25C139.52 141.737 137.312 141.539 135.16 141.198C133.174 150.864 136.304 164.253 147.838 171.653C159.209 178.945 174.828 178.389 184.233 170.217ZM193.034 157.952C198.157 146.807 194.935 127.867 177.457 119.403C162.359 112.091 146.537 119.409 141.46 127.653C162.717 130.771 180.763 139.324 193.034 157.952ZM137.478 133.444C159.176 136.485 177.708 144.738 190.295 163.324C192.078 161.343 192.137 161.229 190.862 159.264C178.992 140.935 161.244 132.668 140.244 130.027C139.872 129.982 139.291 130.284 139.07 130.606C138.492 131.434 138.065 132.363 137.478 133.444ZM135.551 138.872C137.465 139.174 139.135 139.359 140.769 139.704C155.765 142.88 169.073 149.328 179.961 160.235C182.341 162.619 184.223 165.501 186.346 168.167C188.932 166.498 189.114 165.897 187.36 163.419C175.2 146.239 157.692 138.648 137.495 135.939C137.097 135.887 136.451 136.348 136.213 136.745C135.871 137.316 135.789 138.047 135.551 138.872Z" fill="var(--fill-0, #E9EAEB)"/>
<path id="Vector_30" d="M397.953 179.5C399.016 181.024 400.024 182.485 401.048 183.934C401.456 184.509 401.954 185.022 402.316 185.62C403.419 187.445 402.828 188.624 400.536 189.176C400.546 189.313 400.497 189.508 400.572 189.595C402.773 192.217 403.047 195.153 401.984 198.288C400.888 201.526 401.41 204.436 403.533 207.136C403.859 207.551 403.696 208.35 403.761 208.974C403.109 208.805 402.199 208.851 401.85 208.435C399.206 205.284 398.553 201.666 399.864 197.787C400.781 195.072 400.474 192.71 398.485 190.573C397.604 189.628 396.062 189.326 395.009 190.06C393.695 190.973 392.107 190.32 392.113 188.657C392.12 187.127 392.534 185.571 392.964 184.083C393.349 182.748 394.004 181.491 394.386 180.566C390.884 179.016 387.281 177.866 384.15 175.947C376.223 171.081 371.257 163.698 367.745 155.292C363.525 145.19 362.491 134.757 365.325 124.151C367.624 115.547 372.796 109.424 381.89 107.414C389.945 105.634 396.952 107.859 402.845 113.507C408.528 118.958 411.698 125.743 412.934 133.431C414.541 143.426 414.147 153.278 410.446 162.834C407.804 169.658 403.888 174.888 397.953 179.5ZM411.506 143.757C411.506 142.621 411.548 141.484 411.499 140.35C411.131 131.872 408.991 123.999 403.389 117.363C397.67 110.59 390.567 107.511 381.675 109.707C374.341 111.519 369.747 116.414 367.833 123.447C363.222 140.389 367.36 155.428 378.731 168.586C382.526 172.978 387.287 176.051 393.016 177.493C395.064 178.009 396.942 177.772 398.465 176.265C400.194 174.553 401.981 172.858 403.441 170.928C409.533 162.899 411.564 153.619 411.506 143.757ZM396.401 181.365C395.602 183.447 394.94 185.171 394.158 187.202C395.495 187.003 396.424 186.835 397.357 186.737C398.27 186.643 399.193 186.617 400.203 186.558C399.033 184.957 397.836 183.327 396.401 181.365Z" fill="var(--fill-0, #E9EAEB)"/>
<path id="Vector_31" d="M367.97 231.727C366.378 231.114 364.689 230.672 363.232 229.827C362.24 229.252 361.556 229.246 360.584 229.691C351.949 233.641 343.295 237.555 334.64 241.462C333.656 241.907 332.651 242.372 331.604 242.615C329.723 243.054 328.197 242.287 327.704 240.835C327.176 239.27 327.825 238.029 329.775 237.165C334.882 234.898 340.008 232.673 345.131 230.435C349.556 228.502 353.981 226.566 358.415 224.659C359.182 224.331 359.583 224.023 359.501 223.019C359.107 218.261 362.191 214.662 366.988 214.129C371.713 213.603 375.835 216.601 376.64 221.148C377.668 226.962 373.96 231.406 367.97 231.727ZM368.283 229.879C371.579 229.707 374.266 227.729 374.971 224.822C375.786 221.476 374.204 217.913 371.253 216.442C366.939 214.291 361.484 217.023 361.092 221.544C360.998 222.636 361.06 223.545 362.338 224.192C363.007 224.53 363.672 225.8 363.568 226.54C363.343 228.125 364.151 228.72 365.322 229.135C366.281 229.47 367.295 229.636 368.283 229.879ZM330.558 241.238C331.393 240.952 332.022 240.79 332.606 240.527C341.99 236.291 351.372 232.043 360.753 227.8C361.546 227.443 362.377 226.962 361.826 226.037C361.624 225.699 360.466 225.605 359.928 225.832C353.149 228.723 346.402 231.692 339.649 234.648C336.522 236.015 333.385 237.363 330.297 238.815C329.84 239.029 329.397 239.757 329.387 240.254C329.387 240.588 330.166 240.929 330.558 241.238Z" fill="var(--fill-0, #E9EAEB)"/>
<path id="Vector_32" d="M38.1784 66.5972C43.7023 66.5745 47.5175 70.6802 46.7773 75.9942C46.6273 77.0726 47.1881 77.2934 47.8762 77.6312C53.9186 80.5871 59.9642 83.5462 66.0034 86.5117C69.2186 88.0903 72.4273 89.6787 75.6392 91.2605C77.7066 92.2805 78.4371 93.6252 77.7751 95.2071C77.1425 96.7207 75.186 97.4256 73.2816 96.6005C70.9436 95.5839 68.6838 94.3918 66.411 93.2387C59.3936 89.6819 52.3762 86.1252 45.3816 82.523C44.4034 82.0195 43.7055 82.039 42.7403 82.6432C39.5773 84.6245 35.1751 84.2607 32.361 81.9351C29.661 79.7068 28.7708 75.9552 30.0784 72.3075C31.3142 68.8385 34.4773 66.6135 38.1784 66.5972ZM38.1686 82.3801C39.0588 82.1689 39.9751 82.0358 40.8294 81.7304C41.8958 81.3471 42.7794 80.9444 42.5707 79.343C42.4697 78.5667 43.5392 77.6312 44.0968 76.7835C44.4718 76.215 45.2284 75.6531 45.2088 75.1139C45.1631 73.9153 44.974 72.5998 44.4131 71.5637C42.9034 68.767 38.8305 67.5132 35.7229 68.6858C32.4849 69.9071 30.574 73.5645 31.2979 77.1505C31.8979 80.1226 34.8001 82.2891 38.1686 82.3801ZM74.9707 95.4084C75.3555 95.1194 75.9849 94.8693 76.1642 94.434C76.2881 94.1352 75.8479 93.5278 75.5447 93.1542C75.3229 92.8781 74.9218 92.7352 74.5794 92.5696C65.1849 87.9572 55.7871 83.348 46.386 78.7486C45.6784 78.4043 44.7588 77.7579 44.3447 78.8655C44.1849 79.2878 44.8371 80.3629 45.3784 80.6423C54.6327 85.4073 63.9294 90.0977 73.2229 94.7913C73.699 95.0284 74.2338 95.1486 74.9707 95.4084Z" fill="var(--fill-0, #E9EAEB)"/>
<path id="Vector_33" d="M272.11 19.5833C267.704 19.5995 264.127 16.0688 264.124 11.7065C264.121 8.21146 266.834 5.59019 270.492 5.55121C274.888 5.50249 278.619 9.03 278.677 13.2883C278.726 16.9198 275.961 19.567 272.11 19.5833ZM270.688 7.75347C268.168 7.73723 266.328 9.41653 266.296 11.7682C266.257 14.6526 269.107 17.4005 272.126 17.3908C274.578 17.3843 276.483 15.5783 276.457 13.2818C276.431 10.4657 273.623 7.77296 270.688 7.75347Z" fill="var(--fill-0, #E9EAEB)"/>
<path id="Vector_34" d="M266.586 24.9817C270.567 25.0045 273.688 27.8856 273.649 31.5008C273.613 34.9601 270.629 37.5911 266.765 37.5781C262.754 37.5619 259.516 34.5703 259.585 30.9421C259.65 27.525 262.663 24.959 266.586 24.9817ZM266.85 35.3434C269.338 35.3304 271.383 33.5926 271.415 31.4586C271.451 29.1296 269.178 27.2002 266.423 27.2197C263.883 27.2392 261.861 28.938 261.845 31.072C261.825 33.3652 264.157 35.3564 266.85 35.3434Z" fill="var(--fill-0, #E9EAEB)"/>
<path id="Vector_35" d="M23.974 204.55C23.2273 206.775 22.5131 209.01 21.7208 211.215C21.3881 212.141 20.5012 212.498 19.774 211.933C19.3664 211.615 19.2425 210.614 19.3697 209.997C19.7903 207.967 20.7034 205.995 20.8371 203.962C21.0229 201.152 19.311 199.337 16.5849 198.456C16.1218 198.307 15.4794 197.485 15.5675 197.141C15.7012 196.621 16.536 195.799 16.849 195.887C18.1566 196.261 19.5686 196.699 20.599 197.531C22.7284 199.256 23.6381 201.669 23.5566 204.423C23.7001 204.466 23.8371 204.508 23.974 204.55Z" fill="var(--fill-0, #E9EAEB)"/>
<path id="Vector_36" d="M447.023 104.997C446.126 105.588 445.617 106.183 445.203 106.124C444.753 106.059 444.085 105.393 444.072 104.978C444.062 104.555 444.731 103.769 445.112 103.763C445.608 103.756 446.107 104.364 447.023 104.997Z" fill="var(--fill-0, #E9EAEB)"/>
<path id="Vector_37" d="M4.22293 89.9743C3.60662 89.068 3.0001 88.5678 3.05554 88.1553C3.11749 87.6941 3.77945 87.3108 4.17727 86.895C4.58162 87.3043 5.24032 87.6713 5.31532 88.1326C5.38054 88.5418 4.8001 89.0583 4.22293 89.9743Z" fill="var(--fill-0, #E9EAEB)"/>
<path id="Vector_38" d="M79.2001 112.721C78.5968 111.799 78.0001 111.285 78.0621 110.873C78.1338 110.405 78.799 110.028 79.2034 109.613C79.6012 110.028 80.2599 110.408 80.3218 110.87C80.3838 111.292 79.7968 111.799 79.2001 112.721Z" fill="var(--fill-0, #E9EAEB)"/>
<path id="Vector_39" d="M62.6447 143.757C61.6729 144.342 61.1381 144.917 60.7208 144.846C60.2936 144.771 59.749 144.085 59.6936 143.614C59.6577 143.303 60.3784 142.621 60.7729 142.611C61.2295 142.601 61.7023 143.143 62.6447 143.757Z" fill="var(--fill-0, #E9EAEB)"/>
<path id="Vector_40" d="M60.186 103.506C60.7371 104.451 61.2979 104.984 61.2262 105.41C61.1479 105.861 60.4697 106.209 60.0523 106.602C59.6544 106.179 58.9794 105.783 58.9403 105.332C58.9044 104.903 59.5305 104.412 60.186 103.506Z" fill="var(--fill-0, #E9EAEB)"/>
<path id="Vector_41" d="M43.8849 133.276C44.1621 133.743 44.674 134.224 44.6447 134.672C44.6186 135.078 43.924 135.806 43.6599 135.751C43.1773 135.65 42.5381 135.124 42.4534 134.682C42.3751 134.276 42.9458 133.75 43.2294 133.276C43.4512 133.279 43.6697 133.276 43.8849 133.276Z" fill="var(--fill-0, #E9EAEB)"/>
<path id="Vector_42" d="M39.5479 100.144C39.274 99.6473 38.7294 99.1081 38.8012 98.6631C38.8729 98.2116 39.5479 97.8575 39.9621 97.458C40.3371 97.89 40.9729 98.3026 41.0088 98.7638C41.0447 99.2055 40.4577 99.696 40.1447 100.167C39.9458 100.157 39.7468 100.151 39.5479 100.144Z" fill="var(--fill-0, #E9EAEB)"/>
<path id="Vector_43" d="M26.5794 123.528C26.8631 123.996 27.424 124.512 27.3523 124.918C27.2708 125.366 26.6577 125.902 26.1816 126.022C25.9273 126.087 25.1968 125.366 25.1773 124.976C25.1544 124.512 25.6631 124.018 25.9403 123.538C26.1523 123.534 26.3642 123.531 26.5794 123.528Z" fill="var(--fill-0, #E9EAEB)"/>
<path id="Vector_44" d="M19.0044 92.3844C19.8294 91.7543 20.299 91.1176 20.7164 91.1501C21.1827 91.1858 21.6001 91.8322 22.0371 92.2122C21.6294 92.6605 21.2871 93.3459 20.7914 93.479C20.4327 93.5732 19.8751 92.9463 19.0044 92.3844Z" fill="var(--fill-0, #E9EAEB)"/>
<path id="Vector_45" d="M11.2729 116.047C10.4153 116.703 9.94575 117.34 9.52184 117.311C9.06858 117.282 8.65445 116.625 8.22401 116.242C8.61206 115.817 8.94467 115.135 9.40119 115.04C9.8088 114.956 10.3534 115.521 11.2729 116.047Z" fill="var(--fill-0, #E9EAEB)"/>
<path id="Vector_46" d="M399.959 25.9822C406.588 26.0406 411.841 31.3189 411.806 37.8899C411.77 44.4188 406.363 49.7068 399.789 49.6418C393.199 49.5768 388.011 44.2758 388.047 37.6398C388.076 31.1987 393.466 25.927 399.959 25.9822ZM408.766 37.9452C408.868 33.1736 404.925 29.0679 400.138 28.9672C395.263 28.8633 391.164 32.7741 391.031 37.6593C390.9 42.3854 394.856 46.4748 399.688 46.6113C404.583 46.7509 408.662 42.8564 408.766 37.9452Z" fill="var(--fill-0, #E9EAEB)"/>
<path id="Vector_47" d="M342.594 288.249C343.141 289.21 343.696 289.743 343.624 290.172C343.552 290.613 342.871 290.961 342.46 291.347C342.095 290.922 341.475 290.513 341.442 290.061C341.407 289.626 341.984 289.148 342.594 288.249Z" fill="var(--fill-0, #E9EAEB)"/>
<path id="Vector_48" d="M327.418 256.504C326.504 257.096 325.996 257.68 325.601 257.612C325.154 257.537 324.525 256.884 324.509 256.459C324.493 256.079 325.171 255.397 325.598 255.348C326.012 255.303 326.504 255.887 327.418 256.504Z" fill="var(--fill-0, #E9EAEB)"/>
<path id="Vector_49" d="M346.719 251.869C345.825 252.457 345.316 253.052 344.906 252.99C344.459 252.925 343.768 252.227 343.794 251.843C343.823 251.402 344.475 250.732 344.935 250.664C345.333 250.606 345.838 251.242 346.719 251.869Z" fill="var(--fill-0, #E9EAEB)"/>
<path id="Vector_50" d="M360.049 283.688C359.504 282.746 358.966 282.23 359.028 281.798C359.09 281.363 359.749 281.012 360.147 280.625C360.532 281.044 361.177 281.434 361.226 281.886C361.272 282.305 360.672 282.792 360.049 283.688Z" fill="var(--fill-0, #E9EAEB)"/>
<path id="Vector_51" d="M379.578 272.969C378.704 273.518 378.173 274.109 377.775 274.032C377.332 273.944 376.696 273.236 376.715 272.823C376.735 272.407 377.433 271.745 377.876 271.709C378.29 271.677 378.757 272.323 379.578 272.969Z" fill="var(--fill-0, #E9EAEB)"/>
<path id="Vector_52" d="M364.983 247.449C364.725 246.965 364.197 246.425 364.278 246.01C364.366 245.561 365.032 245.227 365.443 244.844C365.814 245.266 366.447 245.672 366.483 246.12C366.515 246.546 365.925 247.023 365.609 247.478C365.4 247.468 365.191 247.458 364.983 247.449Z" fill="var(--fill-0, #E9EAEB)"/>
<path id="Vector_53" d="M384.861 238.721C385.406 239.637 385.979 240.166 385.901 240.582C385.816 241.046 385.145 241.404 384.731 241.81C384.329 241.355 383.687 240.942 383.606 240.439C383.544 240.059 384.209 239.565 384.861 238.721Z" fill="var(--fill-0, #E9EAEB)"/>
<path id="Vector_54" d="M395.292 263.498C395.595 263.966 396.182 264.475 396.121 264.885C396.052 265.326 395.419 265.872 394.94 265.986C394.673 266.048 393.949 265.343 393.919 264.946C393.887 264.488 394.389 263.988 394.66 263.508C394.872 263.504 395.08 263.501 395.292 263.498Z" fill="var(--fill-0, #E9EAEB)"/>
<path id="Vector_55" d="M411.519 254.266C410.674 254.9 410.182 255.549 409.771 255.501C409.334 255.449 408.665 254.744 408.662 254.322C408.659 253.896 409.308 253.204 409.761 253.123C410.156 253.055 410.667 253.679 411.519 254.266Z" fill="var(--fill-0, #E9EAEB)"/>
<path id="Vector_56" d="M403.337 237.181C402.44 237.746 401.915 238.341 401.514 238.266C401.074 238.185 400.464 237.49 400.461 237.058C400.458 236.671 401.156 235.992 401.579 235.963C402.003 235.934 402.476 236.548 403.337 237.181Z" fill="var(--fill-0, #E9EAEB)"/>
<path id="Vector_57" d="M105 279.384C105.049 276.75 105.688 274.164 107.266 271.851C109.96 267.911 115.435 266.622 119.55 268.974C120.822 269.701 121.882 270.659 121.908 272.225C121.914 272.686 121.48 273.355 121.066 273.557C120.747 273.713 119.824 273.401 119.716 273.099C119.005 271.13 117.401 270.64 115.608 270.477C113.488 270.283 111.646 270.961 110.149 272.485C106.409 276.301 106.882 283.818 111.101 287.02C113.961 289.19 116.99 289.213 120.098 287.524C120.564 287.271 121.092 286.9 121.562 286.939C121.989 286.978 122.7 287.491 122.707 287.81C122.72 288.346 122.423 289.089 121.999 289.408C117.668 292.669 110.834 291.6 107.563 287.222C105.851 284.935 105.042 282.356 105 279.384Z" fill="var(--fill-0, #E9EAEB)"/>
<path id="Vector_58" d="M104.632 237.597C107.615 239.042 109.19 241.28 109.22 244.46C109.256 248.413 105.923 251.421 101.733 250.95C99.724 250.723 97.7577 249.946 95.8338 249.248C94.487 248.761 93.9262 247.627 93.9327 246.153C93.9653 240.257 93.9392 234.358 93.949 228.463C93.9523 226.849 94.6338 225.962 96.1338 226.108C98.5501 226.345 101.045 226.55 103.314 227.326C108.336 229.041 108.76 234.443 105.033 237.09C104.915 237.171 104.844 237.324 104.632 237.597ZM96.574 242.823C96.5675 247.374 96.8186 247.66 101.407 248.352C101.459 248.358 101.511 248.374 101.566 248.381C103.722 248.66 105.809 247.507 106.432 245.698C107.09 243.785 106.099 241.261 104.123 240.381C102.76 239.776 101.273 239.309 99.799 239.13C96.574 238.737 96.561 238.828 96.574 242.014C96.5773 242.284 96.574 242.554 96.574 242.823ZM96.587 228.44C96.587 230.789 96.561 232.715 96.6164 234.641C96.6229 234.914 97.0044 235.401 97.2262 235.411C98.9903 235.482 100.833 235.771 102.489 235.356C103.428 235.119 104.423 233.787 104.739 232.751C105.15 231.406 104.019 230.36 102.789 229.964C100.865 229.34 98.8566 228.979 96.587 228.44Z" fill="var(--fill-0, #E9EAEB)"/>
<path id="Vector_59" d="M77.0708 273.785C77.7131 275.896 78.3164 277.855 78.9034 279.817C79.1805 280.742 79.4121 281.736 78.1403 282.064C77.0088 282.357 76.6566 281.476 76.3892 280.603C75.7077 278.378 75.0979 276.13 74.2892 273.954C74.061 273.34 73.3338 272.677 72.6979 272.482C70.3762 271.764 67.999 271.235 65.4979 270.598C64.6273 272.817 63.7958 274.918 62.9838 277.023C62.6381 277.916 62.2958 278.894 61.0697 278.452C59.8338 278.007 60.1958 277.007 60.5251 276.127C61.2588 274.155 62.0218 272.193 62.8468 270.036C62.0773 269.786 61.3273 269.715 60.8251 269.328C60.3262 268.945 60.0751 268.24 59.7164 267.678C60.2838 267.399 60.8284 267.061 61.4218 266.869C61.686 266.785 62.0708 266.941 62.3577 267.08C63.6001 267.688 64.0501 267.061 64.4544 265.966C65.7425 262.465 67.086 258.983 68.4979 255.53C68.7425 254.936 69.4371 254.523 69.9229 254.026C70.4251 254.559 71.1849 255.01 71.3936 255.64C72.8284 260.006 74.1947 264.397 75.4762 268.812C75.8545 270.111 76.4186 270.933 77.8338 271.037C78.2055 271.063 78.6816 271.131 78.9001 271.371C79.2588 271.761 79.6631 272.32 79.6371 272.781C79.6142 273.138 79.0045 273.557 78.5642 273.759C78.2121 273.911 77.7295 273.785 77.0708 273.785ZM66.4371 268.107C68.6708 268.675 70.6762 269.185 73.0468 269.789C71.961 266.275 70.9794 263.105 70.0012 259.931C69.8675 259.931 69.7371 259.934 69.6034 259.934C68.5827 262.569 67.5653 265.2 66.4371 268.107Z" fill="var(--fill-0, #E9EAEB)"/>
<path id="Vector_60" d="M292.353 159.209C292.373 165.224 296.123 169.226 301.102 168.84C302.452 168.736 303.786 168.086 305.064 167.537C305.928 167.164 306.731 166.761 307.308 167.771C307.869 168.752 307.216 169.363 306.408 169.866C299.146 174.417 290.175 169.437 289.741 160.528C289.536 156.295 290.602 152.453 294.225 149.77C297.137 147.613 301.556 147.392 304.484 149.435C305.446 150.104 306.029 151.391 306.597 152.492C306.724 152.735 306.147 153.645 305.743 153.775C305.345 153.901 304.549 153.564 304.282 153.184C302.335 150.4 298.797 149.734 295.953 151.767C293.231 153.716 292.454 156.575 292.353 159.209Z" fill="var(--fill-0, #E9EAEB)"/>
<path id="Vector_61" d="M289.585 118.136C292.119 119.292 293.615 121.127 294.082 123.697C294.887 128.127 291.538 131.869 286.856 131.476C284.798 131.304 282.773 130.482 280.794 129.781C279.44 129.3 278.902 128.147 278.909 126.679C278.941 120.728 278.919 114.777 278.932 108.83C278.935 107.332 279.74 106.449 281.266 106.608C283.523 106.842 285.848 107.034 287.984 107.732C293.41 109.502 293.716 115.04 289.986 117.623C289.869 117.707 289.797 117.863 289.585 118.136ZM283.823 119.273C281.547 119.546 281.514 119.575 281.511 121.823C281.508 123.33 281.446 124.843 281.557 126.344C281.592 126.815 281.997 127.517 282.398 127.663C283.859 128.192 285.369 128.722 286.901 128.891C289.089 129.134 290.987 127.796 291.45 126.022C291.965 124.057 291 121.728 289.031 120.884C287.374 120.169 285.564 119.796 283.823 119.273ZM281.527 112.533C281.527 113.342 281.482 114.157 281.55 114.959C281.576 115.287 281.762 115.726 282.016 115.891C283.327 116.736 287.328 116.379 288.574 115.368C290.25 114.007 290.279 112.072 288.457 110.922C287.439 110.279 286.194 109.85 284.994 109.655C280.67 108.953 281.625 108.846 281.527 112.533Z" fill="var(--fill-0, #E9EAEB)"/>
<path id="Vector_62" d="M250.454 151.134C249.554 153.43 248.7 155.584 247.869 157.747C247.529 158.627 247.079 159.41 245.977 158.975C244.869 158.537 245.113 157.634 245.439 156.776C246.202 154.759 246.972 152.742 247.794 150.572C246.982 150.299 246.199 150.189 245.612 149.792C245.165 149.494 244.96 148.831 244.647 148.331C245.143 148.032 245.609 147.558 246.14 147.473C247.079 147.324 248.302 147.759 248.945 147.304C249.613 146.83 249.74 145.593 250.089 144.686C251.218 141.756 252.3 138.81 253.497 135.91C253.725 135.358 254.491 134.559 254.85 134.633C255.418 134.75 256.102 135.429 256.295 136.014C257.716 140.331 259.099 144.664 260.335 149.032C260.769 150.569 261.45 151.511 263.09 151.66C263.456 151.693 263.915 151.803 264.131 152.05C264.414 152.378 264.691 152.92 264.613 153.294C264.535 153.671 264.065 154.087 263.674 154.242C263.263 154.405 262.735 154.278 262.05 154.278C262.578 156.052 263.129 157.673 263.527 159.329C263.785 160.411 265.034 161.944 263.208 162.516C261.271 163.12 261.427 161.086 261.029 160.001C260.361 158.176 259.924 156.263 259.252 154.437C259.047 153.879 258.473 153.219 257.932 153.057C255.541 152.349 253.106 151.8 250.454 151.134ZM251.381 148.656C253.66 149.218 255.691 149.718 258.026 150.293C256.901 146.7 255.923 143.566 254.941 140.431C254.811 140.441 254.681 140.454 254.553 140.464C253.526 143.108 252.506 145.752 251.381 148.656Z" fill="var(--fill-0, #E9EAEB)"/>
<path id="Vector_63" d="M243.173 206.385C246.564 207.064 250.083 207.369 253.321 208.487C262.601 211.686 267.352 218.741 269.1 228.064C269.459 229.977 268.604 230.604 266.279 230.233C259.419 229.139 252.558 228.021 245.7 226.91C238.36 225.722 231.02 224.529 223.676 223.35C220.94 222.912 220.487 222.188 221.615 219.67C225.075 211.946 231.232 207.935 239.518 206.937C240.701 206.795 241.901 206.798 243.095 206.733C243.121 206.619 243.147 206.502 243.173 206.385ZM225.052 220.252C226.096 220.421 226.996 220.57 227.896 220.716C232.771 221.502 237.643 222.295 242.518 223.068C243.173 223.172 244.008 223.497 244.168 222.392C244.741 218.394 245.292 214.395 245.853 210.403C236.967 208.971 228.385 212.784 225.052 220.252ZM265.265 226.699C264.649 219.557 255.763 210.92 249.137 210.988C248.599 214.756 248.103 218.556 247.494 222.337C247.295 223.578 247.758 223.958 248.883 224.104C250.979 224.38 253.066 224.76 255.157 225.091C258.509 225.631 261.864 226.16 265.265 226.699Z" fill="var(--fill-0, #E9EAEB)"/>
<path id="Vector_64" d="M135.274 350.048C135.271 345.339 139.106 341.301 143.547 341.337C147.404 341.366 150.245 344.371 150.238 348.411C150.232 353.137 146.452 357.185 142.021 357.214C138.121 357.24 135.274 354.216 135.274 350.048ZM147.864 348.444C147.851 345.728 146.025 343.692 143.573 343.662C140.446 343.623 137.583 346.755 137.615 350.175C137.638 352.881 139.494 354.865 141.985 354.846C145.106 354.826 147.884 351.802 147.864 348.444Z" fill="var(--fill-0, #E9EAEB)"/>
<path id="Vector_65" d="M128.517 350.471C128.449 355.086 126.417 357.883 123.281 358.737C120.359 359.533 117.003 358.058 115.242 355.148C113.726 352.644 113.384 349.98 114.444 347.219C116.126 342.841 121.079 341.36 124.878 344.124C127.379 345.946 128.514 348.483 128.517 350.471ZM126.417 351.218C125.958 350.032 125.654 348.749 125.002 347.68C123.646 345.465 121.373 344.624 119.332 345.351C117.267 346.089 115.842 348.58 116.276 351.023C116.469 352.108 116.876 353.228 117.466 354.151C118.777 356.194 120.988 357.016 122.892 356.389C124.872 355.742 126.189 353.703 126.417 351.218Z" fill="var(--fill-0, #E9EAEB)"/>
<path id="Vector_66" d="M168.274 358.792C168.228 363.223 164.367 366.952 159.838 366.942C155.928 366.932 152.922 363.976 153.007 360.228C153.108 355.859 157.092 352.095 161.547 352.16C165.424 352.218 168.313 355.067 168.274 358.792ZM159.845 364.542C163.034 364.555 165.952 361.81 165.956 358.796C165.959 356.389 163.921 354.472 161.39 354.508C158.328 354.55 155.433 357.295 155.364 360.225C155.309 362.677 157.226 364.529 159.845 364.542Z" fill="var(--fill-0, #E9EAEB)"/>
<path id="Vector_67" d="M165.297 385.632C161.488 385.609 158.485 383.037 158.24 379.587C158.009 376.323 160.686 373.227 164.279 372.607C169.337 371.733 173.439 375.189 172.869 379.844C172.461 383.144 169.181 385.655 165.297 385.632ZM165.819 374.829C163.086 374.803 160.634 376.826 160.598 379.142C160.562 381.4 162.695 383.29 165.313 383.319C168.166 383.352 170.619 381.305 170.602 378.905C170.589 376.618 168.519 374.855 165.819 374.829Z" fill="var(--fill-0, #E9EAEB)"/>
<path id="Vector_68" d="M278.553 327.48C278.002 329.663 277.526 331.872 276.835 334.012C276.678 334.496 275.769 334.736 275.204 335.087C275.045 334.48 274.591 333.769 274.768 333.285C277.308 326.418 275.769 320.672 270.241 315.894C269.87 315.572 269.958 314.725 269.831 314.12C270.561 314.189 271.526 313.981 271.986 314.367C275.416 317.274 277.604 320.922 278.123 325.45C278.198 326.093 278.198 326.746 278.231 327.396C278.338 327.425 278.446 327.451 278.553 327.48Z" fill="var(--fill-0, #E9EAEB)"/>
<path id="Vector_69" d="M215.165 336.565C215.475 333.606 216.519 331.271 218.974 329.734C219.669 329.302 220.578 329.111 221.407 329.049C221.716 329.026 222.268 329.65 222.359 330.056C222.431 330.377 222.069 331.014 221.736 331.177C217.856 333.09 216.884 335.419 218.364 339.485C218.586 340.093 219.01 340.658 219.091 341.275C219.16 341.811 218.873 342.389 218.742 342.951C218.172 342.695 217.262 342.581 217.089 342.162C216.329 340.343 215.785 338.439 215.165 336.565Z" fill="var(--fill-0, #E9EAEB)"/>
<path id="Vector_70" d="M404.25 135.367C404.143 136.14 404.11 137.248 403.79 138.265C403.627 138.781 402.943 139.132 402.493 139.558C402.232 139.002 401.782 138.456 401.743 137.888C401.599 135.702 401.886 133.448 401.462 131.327C400.686 127.458 398.188 124.707 394.797 122.751C394.467 122.563 394.024 122.449 393.841 122.167C393.613 121.813 393.401 121.225 393.548 120.913C393.701 120.591 394.383 120.221 394.679 120.325C395.534 120.617 396.359 121.062 397.106 121.576C401.844 124.821 404.097 129.394 404.25 135.367Z" fill="var(--fill-0, #E9EAEB)"/>
</g>
</svg>
